<svg xmlns="http://www.w3.org/2000/svg" xmlns:svg="http://www.w3.org/2000/svg" xmlns:xlink="http://www.w3.org/1999/xlink" id="svg10068" width="304.015" height="289.873" version="1.1" style="display:inline"><defs id="defs10070"><marker id="Arrow2Sstart" orient="auto" refX="0" refY="0" style="overflow:visible"><path id="path4640" style="font-size:12px;fill-rule:evenodd;stroke-width:.625;stroke-linejoin:round" d="M 8.7185878,4.0337352 -2.2072895,0.01601326 8.7185884,-4.0017078 c -1.7454984,2.3720609 -1.7354408,5.6174519 -6e-7,8.035443 z" transform="matrix(0.3,0,0,0.3,-0.69,0)"/></marker><linearGradient id="linearGradient5318" x1="-29.837" x2="-29.837" y1="285.06" y2="342.606" gradientTransform="matrix(2.2532936,0,0,2.206809,446.89077,-285.33499)" gradientUnits="userSpaceOnUse" xlink:href="#linearGradient8928"/><linearGradient id="linearGradient8928"><stop style="stop-color:#fff;stop-opacity:.89156628" id="stop8930" offset="0"/><stop style="stop-color:#fff;stop-opacity:0" id="stop8932" offset="1"/></linearGradient><linearGradient id="linearGradient4337" x1="-29.837" x2="-29.837" y1="285.06" y2="342.606" gradientTransform="matrix(2.2300513,0,0,2.206809,217.88644,-653.85766)" gradientUnits="userSpaceOnUse" xlink:href="#linearGradient8928"/></defs><metadata id="metadata10073"/><g id="layer5" style="display:inline" transform="translate(-228.56377,-366.85416)"><g id="needle"><g id="g2887"><rect id="rect3724" width="305.714" height="291.891" x="227.849" y="511.652" ry="0" style="fill:#a56a33;fill-opacity:1;stroke:none"/><rect style="fill:#6589e2;fill-opacity:1;stroke:none" id="rect2942" width="305.714" height="291.891" x="227.849" y="220.55" ry="0"/></g><g id="g2891" transform="translate(0,-2.7650825)"><path id="path3777" d="m 361.8629,495.97025 35.35534,0" style="fill:none;stroke:#fff5f5;stroke-width:4;stroke-linecap:butt;stroke-linejoin:miter;stroke-miterlimit:4;stroke-opacity:1;stroke-dasharray:none;display:inline"/><path style="fill:none;stroke:#fff5f5;stroke-width:4.53458357;stroke-linecap:butt;stroke-linejoin:miter;stroke-miterlimit:4;stroke-opacity:1;stroke-dasharray:none;display:inline" id="path3867" d="m 350.34381,458.15569 58.39352,0"/><path style="fill:none;stroke:#fff5f5;stroke-width:4;stroke-linecap:butt;stroke-linejoin:miter;stroke-miterlimit:4;stroke-opacity:1;stroke-dasharray:none;display:inline" id="path3869" d="m 361.86289,533.78481 35.35535,0"/><path id="path3871" d="m 349.16743,571.59938 60.74627,0" style="fill:none;stroke:#fff5f5;stroke-width:4.27190733;stroke-linecap:butt;stroke-linejoin:miter;stroke-miterlimit:4;stroke-opacity:1;stroke-dasharray:none;display:inline"/><path style="fill:none;stroke:#fff5f5;stroke-width:2.50706863;stroke-linecap:butt;stroke-linejoin:miter;stroke-miterlimit:4;stroke-opacity:1;stroke-dasharray:none;display:inline" id="path2897" d="m 365.65168,478.06297 27.77778,0"/><path id="path2899" d="m 366.06514,553.43828 26.95085,0" style="fill:none;stroke:#fff5f5;stroke-width:2.64286137;stroke-linecap:butt;stroke-linejoin:miter;stroke-miterlimit:4;stroke-opacity:1;stroke-dasharray:none;display:inline"/></g><text xml:space="preserve" style="font-size:40px;font-style:normal;font-weight:400;fill:#fff;fill-opacity:1;stroke:none;font-family:Bitstream Vera Sans" id="text2901" x="409.381" y="536.458"><tspan id="tspan2903" x="409.381" y="536.458" style="font-size:16px;font-weight:700;fill:#fff;fill-opacity:1;font-family:Arial;-inkscape-font-specification:Arial Bold">5</tspan></text><text xml:space="preserve" style="font-size:40px;font-style:normal;font-weight:400;fill:#fff;fill-opacity:1;stroke:none;display:inline;font-family:Bitstream Vera Sans" id="text2901-1" x="424.011" y="573.425"><tspan id="tspan2903-7" x="424.011" y="573.425" style="font-size:16px;font-weight:700;fill:#fff;fill-opacity:1;font-family:Arial;-inkscape-font-specification:Arial Bold">15</tspan></text><text id="text3708" x="409.381" y="498.458" style="font-size:40px;font-style:normal;font-weight:400;fill:#fff;fill-opacity:1;stroke:none;font-family:Bitstream Vera Sans" xml:space="preserve"><tspan style="font-size:16px;font-weight:700;fill:#fff;fill-opacity:1;font-family:Arial;-inkscape-font-specification:Arial Bold" id="tspan3710" x="409.381" y="498.458">5</tspan></text><text id="text3712" x="424.011" y="461.425" style="font-size:40px;font-style:normal;font-weight:400;fill:#fff;fill-opacity:1;stroke:none;display:inline;font-family:Bitstream Vera Sans" xml:space="preserve"><tspan style="font-size:16px;font-weight:700;fill:#fff;fill-opacity:1;font-family:Arial;-inkscape-font-specification:Arial Bold" id="tspan3714" x="424.011" y="461.425">15</tspan></text></g></g><g id="layer2" style="display:inline"><g id="needle3"><path id="path3746" d="M 151.09375,11.875 C 77.730977,11.874997 18.250003,71.355977 18.25,144.71875 l 18,0 c 0.01699,-63.027495 53.124787,-114.125003 116.15625,-114.125 63.04194,3e-6 116.15625,51.114309 116.15625,114.15625 0,0.0343 -3.99997,0.0595 -4,0.0937 l 19.375,0 c 3e-5,-0.0399 0,-0.0851 0,-0.125 0,-73.362773 -59.48097,-132.843747 -132.84375,-132.84375 z" style="fill:#6589e2;fill-opacity:1;stroke:none"/><rect id="rect3805" width="307.086" height="289.914" x="-1.01" y="-.041" style="fill:none;stroke:none"/><g id="g3762" style="display:inline" transform="translate(-228.56377,-366.85416)"><path id="path3736" d="m 380.57142,378.25504 0,17.67857" style="fill:none;stroke:#fff;stroke-width:12;stroke-linecap:butt;stroke-linejoin:miter;stroke-miterlimit:4;stroke-opacity:1;stroke-dasharray:none;display:inline"/><path style="fill:none;stroke:#fff;stroke-width:6;stroke-linecap:butt;stroke-linejoin:miter;stroke-miterlimit:4;stroke-opacity:1;stroke-dasharray:none;display:inline" id="path3756" d="m 403.77761,380.28532 -3.06985,17.40999"/><path id="path3758" d="m 426.27869,386.31447 -6.04643,16.61241" style="fill:none;stroke:#fff;stroke-width:6;stroke-linecap:butt;stroke-linejoin:miter;stroke-miterlimit:4;stroke-opacity:1;stroke-dasharray:none;display:inline"/><path style="fill:none;stroke:#fff;stroke-width:12;stroke-linecap:butt;stroke-linejoin:miter;stroke-miterlimit:4;stroke-opacity:1;stroke-dasharray:none;display:inline" id="path3760" d="m 447.39098,396.15929 -8.83929,15.31008"/><path style="fill:none;stroke:#fff;stroke-width:6;stroke-linecap:butt;stroke-linejoin:miter;stroke-miterlimit:4;stroke-opacity:1;stroke-dasharray:none;display:inline" id="path3762" d="m 357.36523,380.28532 3.06985,17.40999"/><path id="path3764" d="m 334.86415,386.31447 6.04643,16.61241" style="fill:none;stroke:#fff;stroke-width:6;stroke-linecap:butt;stroke-linejoin:miter;stroke-miterlimit:4;stroke-opacity:1;stroke-dasharray:none;display:inline"/><path style="fill:none;stroke:#fff;stroke-width:12;stroke-linecap:butt;stroke-linejoin:miter;stroke-miterlimit:4;stroke-opacity:1;stroke-dasharray:none;display:inline" id="path3766" d="m 313.75187,396.15929 8.83928,15.31008"/><path style="fill:none;stroke:#fff;stroke-width:12;stroke-linecap:butt;stroke-linejoin:miter;stroke-miterlimit:4;stroke-opacity:1;stroke-dasharray:none;display:inline" id="path3788" d="m 264.83656,445.07459 15.31009,8.83929"/><path style="fill:none;stroke:#fff;stroke-width:12;stroke-linecap:butt;stroke-linejoin:miter;stroke-miterlimit:4;stroke-opacity:1;stroke-dasharray:none;display:inline" id="path3790" d="m 496.30628,445.07459 -15.31009,8.83929"/></g></g></g><g id="layer6" style="display:inline" transform="translate(-228.56377,-366.85416)"><g style="display:inline" id="foreground"><g id="g4687" style="display:inline"><path id="rect2936" d="m 23.1875,2.09375 c -11.679256,0 -21.09375,9.414494 -21.09375,21.09375 l 0,243.5 c 0,11.67926 9.414494,21.09375 21.09375,21.09375 l 257.65625,0 c 11.67926,0 21.0625,-9.41449 21.0625,-21.09375 l 0,-243.5 c 0,-11.679256 -9.38324,-21.09375 -21.0625,-21.09375 l -257.65625,0 z M 152,7.5625 c 75.87329,0 137.375,61.501705 137.375,137.375 0,75.87329 -61.50171,137.375 -137.375,137.375 -75.873295,0 -137.375,-61.50171 -137.375,-137.375 C 14.625,69.064205 76.126705,7.5625 152,7.5625 z" transform="translate(228.56377,366.85416)" style="fill:#453e3e;fill-opacity:1;stroke:#000;stroke-width:4.19884777;stroke-miterlimit:10;stroke-opacity:1;stroke-dasharray:none;stroke-dashoffset:0"/></g><g id="g3876"><path style="fill:none;stroke:#f17f07;stroke-width:7;stroke-linecap:round;stroke-linejoin:miter;stroke-miterlimit:5;stroke-opacity:1;stroke-dasharray:none" id="path3775" d="m 298.72122,511.59023 61.11423,0 9.12157,9.12158 13.46461,-7.77379"/><path style="fill:#f60;fill-opacity:1;stroke:#f17f07;stroke-width:5;stroke-linecap:round;stroke-miterlimit:5;stroke-opacity:1;stroke-dasharray:none;stroke-dashoffset:0" id="path3781" d="m 350.52292,461.42294 a 3.0304577,3.0304577 0 1 1 -6.06092,0 3.0304577,3.0304577 0 1 1 6.06092,0 z" transform="translate(33.07896,50.167284)"/><path id="path3723" d="m 462.42163,511.59023 -61.11423,0 -9.12158,9.12158 -13.46461,-7.77379" style="fill:none;stroke:#f17f07;stroke-width:7;stroke-linecap:round;stroke-linejoin:miter;stroke-miterlimit:5;stroke-opacity:1;stroke-dasharray:none"/></g><path id="path3779" d="m 370.42474,377.15541 20.29336,0.0329 -10.36931,19.46879 -9.92405,-19.50168 z" style="fill:#ff251b;fill-opacity:1;stroke:#ff251b;stroke-width:1px;stroke-linecap:butt;stroke-linejoin:miter;stroke-opacity:1;display:inline"/></g></g></svg>