<svg xmlns="http://www.w3.org/2000/svg" xmlns:svg="http://www.w3.org/2000/svg" id="svg2816" width="400" height="400" version="1.1"><metadata id="metadata2822"/><g id="layer2" style="display:inline"><g id="Swashplate"><g id="g4008"><path transform="matrix(0.99009901,0,0,0.99009901,-198.0198,201.9802)" style="fill:#00003d;fill-opacity:1;stroke:#00f;stroke-width:4;stroke-linecap:butt;stroke-linejoin:miter;stroke-miterlimit:4;stroke-opacity:1;stroke-dasharray:none;display:inline" id="Ring" d="m 400,200 a 200,200 0 1 1 -400,0 200,200 0 1 1 400,0 z"/><path style="color:#000;fill:#9796ab;fill-opacity:.80813958;fill-rule:evenodd;stroke:#b5b5bb;stroke-width:2.37170815;stroke-linecap:butt;stroke-linejoin:miter;stroke-miterlimit:4;stroke-opacity:1;stroke-dasharray:none;stroke-dashoffset:0;marker:none;visibility:visible;display:inline;overflow:visible;enable-background:accumulate" id="Rotor" d="m 265,207.5 a 45,12.5 0 1 1 -90,0 45,12.5 0 1 1 90,0 z" transform="matrix(0.52910053,0,0,1.9047619,-116.40212,4.7619059)"/></g></g></g><g id="layer3" style="display:inline"><path style="color:#000;fill:#d86415;fill-opacity:1;fill-rule:evenodd;stroke:#0f0;stroke-width:1.0002594;stroke-linecap:butt;stroke-linejoin:miter;stroke-miterlimit:3;stroke-opacity:1;stroke-dasharray:none;stroke-dashoffset:0;marker:none;visibility:visible;display:inline;overflow:visible;enable-background:accumulate" id="ServoW" d="m 10,397.5 a 10,7.5 0 1 1 -20,0 10,7.5 0 1 1 20,0 z" transform="matrix(0.94540297,0,0,1.2605373,140.4225,-455.65278)"/><text xml:space="preserve" style="font-size:16px;font-style:normal;font-weight:400;fill:#1f5f00;fill-opacity:1;stroke:#0f0;stroke-width:.5;stroke-miterlimit:.1;stroke-opacity:1;stroke-dasharray:none;font-family:Bitstream Vera Sans" id="ServoWtext" x="158" y="41"><tspan id="tspan3639" x="158" y="41">ServoW</tspan></text></g><g style="display:inline" id="g3925"><path id="ServoX" d="m 10,397.5 a 10,7.5 0 1 1 -20,0 10,7.5 0 1 1 20,0 z" transform="matrix(0.94540297,0,0,1.2605373,142.4225,-424.81942)" style="color:#000;fill:#d89615;fill-opacity:1;fill-rule:evenodd;stroke:#0f0;stroke-width:1.0002594;stroke-linecap:butt;stroke-linejoin:miter;stroke-miterlimit:3;stroke-opacity:1;stroke-dasharray:none;stroke-dashoffset:0;marker:none;visibility:visible;display:inline;overflow:visible;enable-background:accumulate"/><text id="ServoXtext" x="158" y="75.667" style="font-size:16px;font-style:normal;font-weight:400;fill:#1f5f00;fill-opacity:1;stroke:#0f0;stroke-width:.5;stroke-miterlimit:.1;stroke-opacity:1;stroke-dasharray:none;font-family:Bitstream Vera Sans" xml:space="preserve"><tspan id="tspan3931" x="158" y="75.667">ServoX</tspan></text></g><g id="g3943" style="display:inline"><path style="color:#000;fill:#d8c815;fill-opacity:1;fill-rule:evenodd;stroke:#0f0;stroke-width:1.0002594;stroke-linecap:butt;stroke-linejoin:miter;stroke-miterlimit:3;stroke-opacity:1;stroke-dasharray:none;stroke-dashoffset:0;marker:none;visibility:visible;display:inline;overflow:visible;enable-background:accumulate" id="ServoY" d="m 10,397.5 a 10,7.5 0 1 1 -20,0 10,7.5 0 1 1 20,0 z" transform="matrix(0.94540298,0,0,1.2605373,142.4225,-390.15277)"/><text xml:space="preserve" style="font-size:16px;font-style:normal;font-weight:400;fill:#1f5f00;fill-opacity:1;stroke:#0f0;stroke-width:.5;stroke-miterlimit:.1;stroke-opacity:1;stroke-dasharray:none;font-family:Bitstream Vera Sans" id="ServoYtext" x="158" y="110.333"><tspan id="tspan3951" x="158" y="110.333">ServoY</tspan></text></g><g style="display:inline" id="g3953"><path id="ServoZ" d="m 10,397.5 a 10,7.5 0 1 1 -20,0 10,7.5 0 1 1 20,0 z" transform="matrix(0.94540298,0,0,1.2605373,142.4225,-355.4861)" style="color:#000;fill:#d8f915;fill-opacity:1;fill-rule:evenodd;stroke:#0f0;stroke-width:1.0002594;stroke-linecap:butt;stroke-linejoin:miter;stroke-miterlimit:3;stroke-opacity:1;stroke-dasharray:none;stroke-dashoffset:0;marker:none;visibility:visible;display:inline;overflow:visible;enable-background:accumulate"/><text id="ServoZtext" x="158" y="145" style="font-size:16px;font-style:normal;font-weight:400;fill:#1f5f00;fill-opacity:1;stroke:#0f0;stroke-width:.5;stroke-miterlimit:.1;stroke-opacity:1;stroke-dasharray:none;font-family:Bitstream Vera Sans" xml:space="preserve"><tspan id="tspan3963" x="158" y="145">ServoZ</tspan></text><path style="fill:#ff6e00;stroke:#ff6e00;stroke-width:1px;stroke-linecap:butt;stroke-linejoin:miter;stroke-opacity:1;fill-opacity:1" id="RadialZ" d="M 185.60761,186.1126 150.1962,151.94369"/></g></svg>