<svg xmlns="http://www.w3.org/2000/svg" xmlns:svg="http://www.w3.org/2000/svg" id="svg2" width="744.094" height="1052.362" version="1.1"><title id="title2859">Paper planes</title><metadata id="metadata7"/><g id="layer1"><g id="plane-flip"><g id="g3972" transform="translate(305.77675,-285.13719)"><path id="path3974" d="m 185.71429,456.6479 110,0 10,-30 8.57143,30 111.42857,0 L 382.85714,338.07647 185.71429,456.6479 z" style="fill:none;stroke:#000;stroke-width:1px;stroke-linecap:butt;stroke-linejoin:miter;stroke-opacity:1"/><path id="path3978" d="m 314.66252,456.62472 68.1853,-118.18785" style="fill:none;stroke:#000;stroke-width:1px;stroke-linecap:butt;stroke-linejoin:miter;stroke-opacity:1"/><path id="path3982" d="m 235.87062,652.34177 76.77159,-88.13581" transform="translate(70,-226)" style="fill:none;stroke:#000;stroke-width:1px;stroke-linecap:butt;stroke-linejoin:miter;stroke-opacity:1"/></g></g><g id="plane-horizontal"><g id="bla" transform="translate(-158.56854,-296.98485)"><path style="fill:none;stroke:#000;stroke-width:1px;stroke-linecap:butt;stroke-linejoin:miter;stroke-opacity:1" id="path2822" d="m 185.71429,456.6479 110,0 10,27.85714 8.57143,-27.85714 111.42857,0 L 382.85714,338.07647 185.71429,456.6479 z"/><path style="fill:none;stroke:#000;stroke-width:1px;stroke-linecap:butt;stroke-linejoin:miter;stroke-opacity:1" id="path2826" d="M 296.42857,456.6479 383.21429,338.43361"/><path style="fill:none;stroke:#000;stroke-width:1px;stroke-linecap:butt;stroke-linejoin:miter;stroke-opacity:1" id="path2828" d="m 314.66252,456.62472 68.1853,-118.18785"/><path style="fill:none;stroke:#000;stroke-width:1px;stroke-linecap:butt;stroke-linejoin:miter;stroke-opacity:1" id="path2830" d="m 305.57115,485.16153 15.65736,-28.28427"/></g><path id="path4065" d="m 146.38783,182.85785 c -0.32605,-0.90165 -2.2117,-6.11664 -4.19034,-11.58888 -1.97865,-5.47224 -3.49043,-10.36632 -3.35952,-10.87573 0.28104,-1.0936 72.47583,-99.552799 72.77633,-99.252297 0.19834,0.198344 -52.99468,92.816837 -55.68619,96.959537 -0.73197,1.12664 -2.97014,7.44751 -4.97371,14.04639 -2.00356,6.59887 -3.7173,12.07724 -3.8083,12.17415 -0.091,0.0969 -0.43223,-0.56152 -0.75827,-1.46317 l 0,0 z" style="opacity:1;fill:#666;fill-opacity:1"/></g><g id="plane-left"><g id="g3994" transform="matrix(0.00256181,-0.99999672,-0.99999672,-0.00256181,780.50589,449.7941)"><path id="path3996" d="m 185.71429,456.6479 110,0 10.14561,-28.97991 8.42582,28.97991 111.42857,0 L 382.85714,338.07647 185.71429,456.6479 z" style="fill:none;stroke:#000;stroke-width:1px;stroke-linecap:butt;stroke-linejoin:miter;stroke-opacity:1"/><path id="path4000" d="m 314.66252,456.62472 68.1853,-118.18785" style="fill:none;stroke:#000;stroke-width:1px;stroke-linecap:butt;stroke-linejoin:miter;stroke-opacity:1"/><path style="fill:none;stroke:#000;stroke-width:1px;stroke-linecap:butt;stroke-linejoin:miter;stroke-opacity:1" id="path4006" d="M 295.91153,456.54311 308.5568,440.11449"/><path id="path4008" d="m 498.79912,370.56922 89.10071,-76.12668" transform="matrix(0.00256181,-0.99999672,-0.99999672,-0.00256181,675.67433,927.38588)" style="fill:none;stroke:#000;stroke-width:1px;stroke-linecap:butt;stroke-linejoin:miter;stroke-opacity:1"/></g><path id="path4075" d="m 331.59817,148.54231 c 0.90991,-0.75045 3.69622,-2.88986 6.1918,-4.75425 l 4.53742,-3.3898 3.80262,1.08903 c 2.09145,0.59896 3.80263,1.2469 3.80263,1.43986 0,0.30789 -18.78631,6.9796 -19.65325,6.9796 -0.18458,0 0.40887,-0.614 1.31878,-1.36444 z" style="opacity:1;fill:#666;fill-opacity:1"/></g><g id="plane-right"><g id="g3984" transform="matrix(0.00256181,-0.99999672,-0.99999672,-0.00256181,1070.5332,666.10797)"><path style="fill:none;stroke:#000;stroke-width:1px;stroke-linecap:butt;stroke-linejoin:miter;stroke-opacity:1" id="path3986" d="m 185.71429,456.6479 110,0 10,27.85714 8.57143,-27.85714 111.42857,0 L 382.85714,338.07647 185.71429,456.6479 z"/><path style="fill:none;stroke:#000;stroke-width:1px;stroke-linecap:butt;stroke-linejoin:miter;stroke-opacity:1" id="path3988" d="M 296.42857,456.6479 383.21429,338.43361"/><path style="fill:none;stroke:#000;stroke-width:1px;stroke-linecap:butt;stroke-linejoin:miter;stroke-opacity:1" id="path3990" d="m 314.66252,456.62472 68.1853,-118.18785"/><path style="fill:none;stroke:#000;stroke-width:1px;stroke-linecap:butt;stroke-linejoin:miter;stroke-opacity:1" id="path3992" d="m 305.57115,485.16153 15.65736,-28.28427"/></g><path id="path4077" d="m 602.06162,363.33367 c -6.43591,-2.39032 -11.37138,-4.37774 -10.96771,-4.41647 0.40366,-0.0387 5.79069,-1.627 11.97117,-3.52947 9.393,-2.89135 18.46611,-7.60947 55.28388,-28.74823 24.22566,-13.90905 44.2519,-25.08393 44.50276,-24.83307 0.25087,0.25086 -19.69141,15.17498 -44.31616,33.1647 l -44.77228,32.70858 -11.70166,-4.34604 z" style="opacity:1;fill:#666;fill-opacity:1"/></g><g id="plane-up"><g id="g4026" transform="translate(-158.56854,5.01515)"><path id="path4012" d="m 185.71429,456.6479 110,0 10,27.85714 8.57143,-27.85714 111.42857,0 -119.8167,-238.58667 -120.1833,238.58667 z" style="fill:none;stroke:#000;stroke-width:1px;stroke-linecap:butt;stroke-linejoin:miter;stroke-opacity:1"/><path id="path4014" d="m 296.42857,456.6479 9.46902,-235.74646" style="fill:none;stroke:#000;stroke-width:1px;stroke-linecap:butt;stroke-linejoin:miter;stroke-opacity:1"/><path id="path4016" d="M 314.66252,456.62472 305.89759,218.42163" style="fill:none;stroke:#000;stroke-width:1px;stroke-linecap:butt;stroke-linejoin:miter;stroke-opacity:1"/><path id="path4022" d="m 147.32905,489.5321 0,-4.13846 0,-263.20584" transform="translate(158.56854,-5.01515)" style="fill:none;stroke:#000;stroke-width:1px;stroke-linecap:butt;stroke-linejoin:miter;stroke-opacity:1"/><path style="fill:none;stroke:#000;stroke-width:1px;stroke-linecap:butt;stroke-linejoin:miter;stroke-opacity:1" id="path4024" d="m 185.71429,456.6479 110,0 10,27.85714 8.57143,-27.85714 111.42857,0 -119.8167,-238.58667 -120.1833,238.58667 z"/></g><path id="path4081" d="m 142.14371,473.11345 -3.82369,-10.68763 0.40417,-5.40719 c 0.22229,-2.97395 1.94295,-44.12254 3.82369,-91.4413 l 3.41951,-86.03413 0.14953,51.06447 c 0.0823,28.08546 0.0823,74.04349 0,102.12894 l -0.14953,51.06447 -3.82368,-10.68763 z" style="opacity:1;fill:#666;fill-opacity:1"/><path id="path4083" d="m 148.16566,377.28265 c 0.0301,-58.26325 0.13214,-104.87969 0.22683,-103.59211 0.0947,1.28759 1.67362,43.76715 3.50873,94.39902 l 3.33657,92.05795 -2.16196,7.14466 c -1.18907,3.92956 -2.7926,9.11993 -3.56339,11.53415 l -1.40144,4.3895 0.0547,-105.93317 0,0 z" style="opacity:1;fill:#666;fill-opacity:1"/></g><g id="plane-down"><g id="g4033" transform="matrix(1,0,0,-1,-158.56854,1000.7047)"><path style="fill:none;stroke:#000;stroke-width:1px;stroke-linecap:butt;stroke-linejoin:miter;stroke-opacity:1" id="path4035" d="m 185.71429,456.6479 110,0 10,27.85714 8.57143,-27.85714 111.42857,0 -119.8167,-238.58667 -120.1833,238.58667 z"/><path style="fill:none;stroke:#000;stroke-width:1px;stroke-linecap:butt;stroke-linejoin:miter;stroke-opacity:1" id="path4037" d="m 296.42857,456.6479 9.46902,-235.74646"/><path style="fill:none;stroke:#000;stroke-width:1px;stroke-linecap:butt;stroke-linejoin:miter;stroke-opacity:1" id="path4039" d="M 314.66252,456.62472 305.89759,218.42163"/><path style="fill:none;stroke:#000;stroke-width:1px;stroke-linecap:butt;stroke-linejoin:miter;stroke-opacity:1" id="path4041" d="m 147.32905,489.5321 0,-4.13846 0,-263.20584" transform="translate(158.56854,-5.01515)"/><path id="path4043" d="m 185.71429,456.6479 110,0 10,27.85714 8.57143,-27.85714 111.42857,0 -119.8167,-238.58667 -120.1833,238.58667 z" style="fill:none;stroke:#000;stroke-width:1px;stroke-linecap:butt;stroke-linejoin:miter;stroke-opacity:1"/></g><path id="path4085" d="m 148.16566,628.36182 -0.0547,-105.93317 1.40144,4.3895 c 0.77079,2.41422 2.37432,7.60459 3.56339,11.53415 l 2.16196,7.14466 -3.33657,92.05795 c -1.83511,50.63187 -3.41404,93.11143 -3.50873,94.39902 -0.0947,1.28758 -0.19676,-45.32887 -0.22683,-103.59211 z" style="opacity:1;fill:#666;fill-opacity:1"/><path id="path4087" d="m 142.54602,640.35978 c -1.88175,-47.47972 -3.6008,-88.73996 -3.8201,-91.68942 l -0.39873,-5.36266 3.8201,-10.73216 3.8201,-10.73216 0.14953,51.01814 c 0.0822,28.05998 0.0822,74.14969 0,102.42158 l -0.14953,51.40343 -3.42137,-86.32675 z" style="opacity:1;fill:#666;fill-opacity:1"/></g></g></svg>