<svg xmlns="http://www.w3.org/2000/svg" xmlns:svg="http://www.w3.org/2000/svg" xmlns:xlink="http://www.w3.org/1999/xlink" id="Root" x="0" y="0" version="1.1" viewBox="0 0 229.28 80.83" style="enable-background:new 0 0 229.28 80.83" xml:space="preserve"><style type="text/css">.st0{fill:#303030}.st1{fill:#fff}.st2{fill:none}.st3{fill:#95a5a6}.st4{fill:#c0392b}.st5{fill:#27ae60}.st6{fill:#7f8c8d}</style><g id="background"><rect width="229.28" height="80.83" class="st0"/><g><path d="M54.66,46.89H43.75l-1.76,4.46h-6.77l10.83-25.23h6.77L63.4,51.36h-7.02L54.66,46.89z M52.71,41.85l-3.46-9 l-3.53,9H52.71z" class="st1"/><path d="M80.83,51.36l-3.67-6.98h-0.14h-4.75v6.98h-6.59V26.12h11.34c6.7,0,10.51,3.24,10.51,8.85 c0,3.82-1.58,6.62-4.5,8.13l5.26,8.24h-7.46V51.36z M72.26,39.12h4.79c2.66,0,4.21-1.37,4.21-3.92c0-2.48-1.55-3.82-4.21-3.82 h-4.79V39.12z" class="st1"/><path d="M98.9,26.12l7.31,14.76l7.27-14.76h7.16v25.23h-5.83l-0.04-15.98l-6.44,13.46h-4.25L97.6,35.37v15.98h-5.87 V26.12H98.9z" class="st1"/></g></g><path id="bargraph" d="M16.69,8.02h195.9c2.64,0,4.78,2.14,4.78,4.78v55.22c0,2.64-2.14,4.78-4.78,4.78H16.69c-2.64,0-4.78-2.14-4.78-4.78V12.8	C11.91,10.16,14.05,8.02,16.69,8.02z" class="st2"/><g id="Symbols"><path id="symbol" d="M181.02,23.06c-10.94,0-19.8,8.87-19.8,19.8c0,10.94,8.87,19.8,19.8,19.8 c10.94,0,19.8-8.87,19.8-19.8C200.82,31.92,191.96,23.06,181.02,23.06z M181.02,55.62c-7.05,0-12.76-5.71-12.76-12.76 s5.71-12.76,12.76-12.76s12.76,5.71,12.76,12.76S188.07,55.62,181.02,55.62z" class="st3"/><path id="symbol-Disarmed" d="M208.14-62.11c-9.4-5.59-21.55-2.51-27.14,6.89s-2.51,21.55,6.89,27.14 s21.55,2.51,27.14-6.89S217.53-56.52,208.14-62.11z M187.07-51.61c2.97-5,8.83-7.21,14.18-5.8l-12.51,21.02 C184.95-40.42,184.1-46.62,187.07-51.61z M208.96-38.59c-2.95,4.95-8.72,7.17-14.03,5.84l12.47-20.96 C211.1-49.67,211.9-43.54,208.96-38.59z" class="st4"/><polygon id="symbol-Armed" points="99.32 -44 115.31 -30.38 133.5 -62.31 127.13 -66.25 113.38 -42.54 104 -50.06" class="st5"/><g id="symbol-Arming"><g><rect width="7.63" height="5.03" x="25.16" y="-59.72" class="st6" transform="matrix(0.7071 -0.7071 0.7071 0.7071 48.9395 3.7331)"/></g><g><rect width="5.03" height="7.63" x="22.46" y="-51.02" class="st6"/></g><g><rect width="5.03" height="7.63" x="26.7" y="-41.12" class="st6" transform="matrix(0.7071 -0.7071 0.7071 0.7071 34.9376 9.7326)"/></g><g><rect width="7.63" height="5.03" x="35.4" y="-35.82" class="st6"/></g><g><rect width="7.63" height="5.03" x="45.3" y="-40.06" class="st6" transform="matrix(0.7071 -0.7071 0.7071 0.7071 40.937 23.7345)"/></g><g><rect width="5.03" height="7.63" x="50.6" y="-51.36" class="st6"/></g><g><rect width="5.03" height="7.63" x="46.36" y="-61.26" class="st6" transform="matrix(0.7071 -0.7071 0.7071 0.7071 54.939 17.7351)"/></g><g><rect width="7.63" height="5.03" x="35.06" y="-63.96" class="st6"/></g><path d="M38.87-60.3c-7.04,0-12.76,5.71-12.76,12.76c0,7.04,5.71,12.76,12.76,12.76c7.04,0,12.76-5.71,12.76-12.76 C51.63-54.59,45.91-60.3,38.87-60.3z M38.87-40.18c-4.07,0-7.37-3.3-7.37-7.37s3.3-7.37,7.37-7.37s7.37,3.3,7.37,7.37 S42.94-40.18,38.87-40.18z" class="st3"/><path d="M38.87-54.92c-4.07,0-7.37,3.3-7.37,7.37s3.3,7.37,7.37,7.37s7.37-3.3,7.37-7.37S42.94-54.92,38.87-54.92z M38.87-43.27c-2.36,0-4.28-1.91-4.28-4.28s1.91-4.28,4.28-4.28s4.28,1.91,4.28,4.28S41.23-43.27,38.87-43.27z" class="st6"/></g></g></svg>