<svg xmlns="http://www.w3.org/2000/svg" xmlns:svg="http://www.w3.org/2000/svg" xmlns:xlink="http://www.w3.org/1999/xlink" id="svg10068" x="0" y="0" version="1.1" viewBox="0 0 229.3 80.8" style="enable-background:new 0 0 229.3 80.8" xml:space="preserve"><style type="text/css">.st0{fill:#303030}.st1{fill:none}.st2{fill:#c0392b}.st3{fill:#f39c12}.st4{fill:#27ae60}.st5{fill:#fff}.st6{fill:#ff0606}</style><g id="g2932" transform="translate(-205.8687,-331.45166)"><g id="background"><rect width="229.3" height="80.8" x="205.9" y="331.5" class="st0"/><path id="bargraph" d="M270.8,339.2h141.9c2.6,0,4.8,2.1,4.8,4.8v55.2c0,2.6-2.1,4.8-4.8,4.8H270.8c-2.6,0-4.8-2.1-4.8-4.8V344 C266,341.3,268.1,339.2,270.8,339.2z" class="st1"/><rect width="16" height="16" x="293.9" y="383.5" class="st2"/><rect width="16" height="19.3" x="313.9" y="380.1" class="st3"/><rect width="16" height="25.9" x="333.9" y="373.5" class="st3"/><rect width="16" height="32.3" x="353.9" y="367.1" class="st4"/><rect width="16" height="41.5" x="373.9" y="358" class="st4"/><rect width="16" height="51.8" x="393.9" y="347.6" class="st4"/></g></g><g id="layer5" transform="translate(21.574609,34.282029)"><path id="green" d="M130.6-48.8h259.2c0.4,0,0.7,0.3,0.7,0.7v7.9c0,0.4-0.3,0.7-0.7,0.7H130.6c-0.4,0-0.7-0.3-0.7-0.7v-7.9 C129.9-48.5,130.2-48.8,130.6-48.8z" class="st4"/></g><g id="layer4" transform="translate(21.574609,34.282029)"><g id="g3793" transform="translate(-2.5253814,87.378195)"><path id="rect3773" d="M23.5,29.4h259.2c0.4,0,0.7,0.3,0.7,0.7V38c0,0.4-0.3,0.7-0.7,0.7H23.5c-0.4,0-0.7-0.3-0.7-0.7v-7.9 C22.9,29.7,23.2,29.4,23.5,29.4z" class="st3"/><rect id="rect3786" width="306.3" height="47.1" x="0" y="0" class="st1"/></g><path id="yellow" d="M106.9,51.7h259.2c0.4,0,0.7,0.3,0.7,0.7v7.9c0,0.4-0.3,0.7-0.7,0.7H106.9c-0.4,0-0.7-0.3-0.7-0.7v-7.9 C106.2,52,106.5,51.7,106.9,51.7z" class="st3"/></g><g id="layer3" transform="translate(21.574609,34.282029)"><path id="red" d="M45.8,92.6h259.2c0.4,0,0.7,0.3,0.7,0.7v7.9c0,0.4-0.3,0.7-0.7,0.7H45.8c-0.4,0-0.7-0.3-0.7-0.7v-7.9 C45.1,92.9,45.4,92.6,45.8,92.6z" class="st2"/></g><g id="foreground"><g id="Satellite"><rect width="64.5" height="52" class="st1"/><rect width="20.4" height="13.5" x="26.3" y="19.2" class="st5" transform="matrix(0.7071 -0.7071 0.7071 0.7071 -7.685 33.4467)"/><path d="M53.2,22v-2.5c-2.6,0-5.2-1-7.2-3c-2-2-3-4.6-3-7.2h-2.5c0,3.3,1.2,6.5,3.7,9S50,22,53.2,22z" class="st5"/><rect width="11.3" height="6" x="38.5" y="30.6" class="st5" transform="matrix(0.7071 -0.7071 0.7071 0.7071 -10.8279 41.0342)"/><rect width="11.3" height="6" x="23.3" y="15.4" class="st5" transform="matrix(0.7071 -0.7071 0.7071 0.7071 -4.5421 25.8595)"/><rect width="11.3" height="6" x="18.4" y="10.5" class="st5" transform="matrix(0.7071 -0.7071 0.7071 0.7071 -2.4972 20.9224)"/><rect width="11.3" height="6" x="43.4" y="35.5" class="st5" transform="matrix(0.7071 -0.7071 0.7071 0.7071 -12.8728 45.9711)"/></g></g><g id="Needle"><rect id="needle" width="120.5" height="56.9" x="85.8" y="13.1" class="st0"/></g><rect id="value" width="47.8" height="18.5" x="21.3" y="51.5" class="st6"/></svg>