<svg xmlns="http://www.w3.org/2000/svg" xmlns:svg="http://www.w3.org/2000/svg" xmlns:xlink="http://www.w3.org/1999/xlink" id="Root" x="0" y="0" version="1.1" viewBox="0 0 229.3 80.8" style="enable-background:new 0 0 229.3 80.8" xml:space="preserve"><style type="text/css">.st0{fill:none}.st1,.st2{opacity:.98;fill:#fff;stroke:#e31717;stroke-width:4.0786;stroke-miterlimit:10;enable-background:new}.st2{stroke-width:3.4178}</style><rect width="229.3" height="80.8" class="st0"/><g id="Text"><path id="value" d="M21.8,45.4h185c3.3,0,6,2.7,6,6v11.1c0,3.3-2.7,6-6,6h-185 c-3.3,0-6-2.7-6-6V51.3C15.9,48,18.5,45.4,21.8,45.4z" class="st1"/><path id="field" d="M19.7,14.1H209c2.3,0,4.2,1.9,4.2,4.2V26c0,2.3-1.9,4.2-4.2,4.2H19.7 c-2.3,0-4.2-1.9-4.2-4.2v-7.8C15.5,15.9,17.4,14.1,19.7,14.1z" class="st2"/></g></svg>