<svg xmlns="http://www.w3.org/2000/svg" xmlns:svg="http://www.w3.org/2000/svg" xmlns:xlink="http://www.w3.org/1999/xlink" id="svg2" width="227.748" height="207.248" version="1.1"><defs id="defs4"><filter id="filter3000" color-interpolation-filters="sRGB"><feGaussianBlur id="feGaussianBlur3002" stdDeviation="1"/><feColorMatrix id="feColorMatrix3004" result="fbSourceGraphic" values="1 0 0 0 0 0 1 0 0 0 0 0 1 0 0 0 0 0 6 -2.5"/></filter><filter id="filter3006" color-interpolation-filters="sRGB"><feColorMatrix id="feColorMatrix3008" result="result7" values="1 0 0 0 0 0 1 0 0 0 0 0 1 0 0 0 0 0 1 0"/><feGaussianBlur id="feGaussianBlur3010" result="result6" stdDeviation="1.764"/><feComposite id="feComposite3012" in="result6" in2="result7" operator="atop" result="result91"/><feComposite id="feComposite3014" in2="result91" operator="in"/></filter><filter id="filter3016" color-interpolation-filters="sRGB"><feGaussianBlur id="feGaussianBlur3018" result="result1" stdDeviation="5"/><feComposite id="feComposite3020" in="result1" in2="result1" k1="0" k2="2" k3="0" k4="0" operator="arithmetic"/></filter><filter id="filter3022" color-interpolation-filters="sRGB"><feGaussianBlur id="feGaussianBlur3024" result="result1" stdDeviation="5"/><feComposite id="feComposite3026" in="result1" in2="result1" k1="0" k2="2" k3="0" k4="0" operator="arithmetic"/></filter><filter id="filter3028" color-interpolation-filters="sRGB"><feGaussianBlur id="feGaussianBlur3030" result="result1" stdDeviation="5"/><feComposite id="feComposite3032" in="result1" in2="result1" k1="0" k2="2" k3="0" k4="0" operator="arithmetic"/><feGaussianBlur id="feGaussianBlur3040" stdDeviation="1"/></filter><filter id="filter3034" color-interpolation-filters="sRGB"><feGaussianBlur id="feGaussianBlur3036" result="result1" stdDeviation="5"/><feComposite id="feComposite3038" in="result1" in2="result1" k1="0" k2="2" k3="0" k4="0" operator="arithmetic"/></filter><filter id="filter3042" color-interpolation-filters="sRGB"><feFlood id="feFlood3044" flood-color="#000" flood-opacity=".377" result="flood"/><feComposite id="feComposite3046" in="flood" in2="SourceGraphic" operator="in" result="composite1"/><feGaussianBlur id="feGaussianBlur3048" result="blur" stdDeviation="3.3"/><feOffset id="feOffset3050" dx="3" dy="3" result="offset"/><feComposite id="feComposite3052" in="SourceGraphic" in2="offset" operator="over" result="composite2"/></filter><filter id="filter3054" color-interpolation-filters="sRGB"><feFlood id="feFlood3056" flood-color="#000" flood-opacity=".377" result="flood"/><feComposite id="feComposite3058" in="flood" in2="SourceGraphic" operator="in" result="composite1"/><feGaussianBlur id="feGaussianBlur3060" result="blur" stdDeviation="3.3"/><feOffset id="feOffset3062" dx="3" dy="3" result="offset"/><feComposite id="feComposite3064" in="SourceGraphic" in2="offset" operator="over" result="composite2"/></filter><filter id="filter3066" color-interpolation-filters="sRGB"><feFlood id="feFlood3068" flood-color="#000" flood-opacity=".377" result="flood"/><feComposite id="feComposite3070" in="flood" in2="SourceGraphic" operator="in" result="composite1"/><feGaussianBlur id="feGaussianBlur3072" result="blur" stdDeviation="3.3"/><feOffset id="feOffset3074" dx="3" dy="3" result="offset"/><feComposite id="feComposite3076" in="SourceGraphic" in2="offset" operator="over" result="composite2"/></filter><filter id="filter3078" color-interpolation-filters="sRGB"><feFlood id="feFlood3080" flood-color="#000" flood-opacity=".377" result="flood"/><feComposite id="feComposite3082" in="flood" in2="SourceGraphic" operator="in" result="composite1"/><feGaussianBlur id="feGaussianBlur3084" result="blur" stdDeviation="3.3"/><feOffset id="feOffset3086" dx="3" dy="3" result="offset"/><feComposite id="feComposite3088" in="SourceGraphic" in2="offset" operator="over" result="composite2"/></filter><filter id="filter3078-9" color-interpolation-filters="sRGB"><feFlood id="feFlood3080-8" flood-color="#000" flood-opacity=".377" result="flood"/><feComposite id="feComposite3082-4" in="flood" in2="SourceGraphic" operator="in" result="composite1"/><feGaussianBlur id="feGaussianBlur3084-1" result="blur" stdDeviation="3.3"/><feOffset id="feOffset3086-4" dx="3" dy="3" result="offset"/><feComposite id="feComposite3088-3" in="SourceGraphic" in2="offset" operator="over" result="composite2"/></filter><filter id="filter3946" color-interpolation-filters="sRGB"/><symbol id="sh_spot"><path id="path4584" d="m -3.5433071e20,3.5433071e20 0,0" style="fill:none;stroke:#000;stroke-linecap:round"/><path id="path4586" d="m -3.5433071e20,3.5433071e20 0,0" style="fill:none;stroke:#000;stroke-linecap:round"/><text id="text4588" style="font-size:.69999999px;line-height:125%;fill:red;font-family:Arial" x="-354330690000000000000" y="354330690000000000000"><tspan id="tspan4590" x="-354330690000000000000" y="354330690000000000000">Light NameSNAME</tspan></text><path id="path4592" d="m -3.5433071e20,3.5433071e20 0,0" style="fill:none;stroke:#000;stroke-linecap:round"/><path id="path4594" d="m -3.5433071e20,3.5433071e20 0,0" style="fill:none;stroke:#000;stroke-linecap:round"/><path id="path4596" d="m -3.5433071e20,3.5433071e20 0,0" style="fill:none;stroke:#000;stroke-linecap:round"/><path id="path4598" d="m -3.5433071e20,3.5433071e20 0,0" style="fill:none;stroke:#000;stroke-linecap:round"/><path id="path4600" d="m -3.5433071e20,3.5433071e20 0,0" style="fill:none;stroke:#000;stroke-linecap:round"/><path id="path4602" d="m -3.5433071e20,3.5433071e20 0,0" style="fill:none;stroke:#000;stroke-linecap:round"/><path id="path4604" d="m -3.5433071e20,3.5433071e20 0,0" style="fill:none;stroke:#000;stroke-linecap:round"/><path id="path4606" d="m -3.5433071e20,3.5433071e20 0,0" style="fill:none;stroke:#000;stroke-linecap:round"/><path id="path4608" d="m -3.5433071e20,3.5433071e20 0,0" style="fill:none;stroke:#000;stroke-linecap:round"/><path id="path4610" d="m -3.5433071e20,3.5433071e20 0,0" style="fill:none;stroke:#000;stroke-linecap:round"/><text id="text4612" style="font-size:0;line-height:125%;fill:#000;font-family:Arial" x="-354330690000000000000" y="354330690000000000000"><tspan id="tspan4614" x="-354330690000000000000" y="354330690000000000000">Depth Map SizeZSIZE</tspan></text><text id="text4616" style="font-size:0;line-height:125%;fill:#000;font-family:Arial" x="-354330690000000000000" y="354330690000000000000"><tspan id="tspan4618" x="-354330690000000000000" y="354330690000000000000">Look-from XYZLFXYZ</tspan></text><text id="text4620" style="font-size:0;line-height:125%;fill:#000;font-family:Arial" x="-354330690000000000000" y="354330690000000000000"><tspan id="tspan4622" x="-354330690000000000000" y="354330690000000000000">Beam DistributionBEAMDI</tspan></text><text id="text4624" style="font-size:0;line-height:125%;fill:#000;font-family:Arial" x="-354330690000000000000" y="354330690000000000000"><tspan id="tspan4626" x="-354330690000000000000" y="354330690000000000000">Cone DeltaCONEDE</tspan></text><text id="text4628" style="font-size:0;line-height:125%;fill:#000;font-family:Arial" x="-354330690000000000000" y="354330690000000000000"><tspan id="tspan4630" x="-354330690000000000000" y="354330690000000000000">Cone AngleCONEAN</tspan></text><text id="text4632" style="font-size:0;line-height:125%;fill:#000;font-family:Arial" x="-354330690000000000000" y="354330690000000000000"><tspan id="tspan4634" x="-354330690000000000000" y="354330690000000000000">*not used*BIASMAX</tspan></text><text id="text4636" style="font-size:0;line-height:125%;fill:#000;font-family:Arial" x="-354330690000000000000" y="354330690000000000000"><tspan id="tspan4638" x="-354330690000000000000" y="354330690000000000000">*not used*BIASMIN</tspan></text><text id="text4640" style="font-size:0;line-height:125%;fill:#000;font-family:Arial" x="-354330690000000000000" y="354330690000000000000"><tspan id="tspan4642" x="-354330690000000000000" y="354330690000000000000">Light Color (RGB)COLOR</tspan></text><text id="text4644" style="font-size:0;line-height:125%;fill:#000;font-family:Arial" x="-354330690000000000000" y="354330690000000000000"><tspan id="tspan4646" x="-354330690000000000000" y="354330690000000000000">Light IntensityINTENSITY</tspan></text><text id="text4648" style="font-size:0;line-height:125%;fill:#000;font-family:Arial" x="-354330690000000000000" y="354330690000000000000"><tspan id="tspan4650" x="-354330690000000000000" y="354330690000000000000">GNAME</tspan></text><text id="text4652" style="font-size:0;line-height:125%;fill:#000;font-family:Arial" x="-354330690000000000000" y="354330690000000000000"><tspan id="tspan4654" x="-354330690000000000000" y="354330690000000000000">Look-at ZLAZ</tspan></text><text id="text4656" style="font-size:0;line-height:125%;fill:#000;font-family:Arial" x="-354330690000000000000" y="354330690000000000000"><tspan id="tspan4658" x="-354330690000000000000" y="354330690000000000000">Look-at YLAY</tspan></text><text id="text4660" style="font-size:0;line-height:125%;fill:#000;font-family:Arial" x="-354330690000000000000" y="354330690000000000000"><tspan id="tspan4662" x="-354330690000000000000" y="354330690000000000000">Look-at XLAX</tspan></text><path id="path4664" d="m -3.5433071e20,3.5433071e20 0,0" style="fill:none;stroke:#000;stroke-linecap:round"/><path id="path4666" d="m -3.5433071e20,3.5433071e20 0,0" style="fill:none;stroke:#000;stroke-linecap:round"/><path id="path4668" d="m -3.5433071e20,3.5433071e20 0,0" style="fill:none;stroke:#000;stroke-linecap:round"/><path id="path4670" d="m -3.5433071e20,3.5433071e20 0,0" style="fill:none;stroke:#000;stroke-linecap:round"/><path id="path4672" d="m -3.5433071e20,3.5433071e20 0,0" style="fill:none;stroke:#000;stroke-linecap:round"/><path id="path4674" d="m -3.5433071e20,3.5433071e20 0,0" style="fill:none;stroke:#000;stroke-linecap:round"/><path id="path4676" d="m -3.5433071e20,3.5433071e20 0,0" style="fill:none;stroke:#000;stroke-linecap:round"/><path id="path4678" d="m -3.5433071e20,3.5433071e20 0,0" style="fill:none;stroke:#000;stroke-linecap:round"/><path id="path4680" d="m -3.5433071e20,3.5433071e20 0,0" style="fill:none;stroke:#000;stroke-linecap:round"/><path id="path4682" d="m -3.5433071e20,3.5433071e20 0,0" style="fill:none;stroke:#000;stroke-linecap:round"/><path id="path4684" d="m -3.5433071e20,3.5433071e20 0,0" style="fill:none;stroke:#000;stroke-linecap:round"/></symbol><symbol id="overhead"><text id="text4511" style="font-size:.69999999px;line-height:125%;fill:red;font-family:Arial" x="-354330690000000000000" y="354330690000000000000"><tspan id="tspan4513" x="-354330690000000000000" y="354330690000000000000">Light NameSNAME</tspan></text><path id="path4515" d="m -3.5433071e20,3.5433071e20 a 0,0 0 0 0 0,0" style="fill:none;stroke:#000;stroke-linecap:round"/><path id="path4517" d="m -3.5433071e20,3.5433071e20 0,0" style="fill:none;stroke:#000;stroke-linecap:round"/><path id="path4519" d="m -3.5433071e20,3.5433071e20 0,0" style="fill:none;stroke:#000;stroke-linecap:round"/><path id="path4521" d="m -3.5433071e20,3.5433071e20 0,0" style="fill:none;stroke:#000;stroke-linecap:round"/><path id="path4523" d="m -3.5433071e20,3.5433071e20 0,0" style="fill:none;stroke:#000;stroke-linecap:round"/><path id="path4525" d="m -3.5433071e20,3.5433071e20 0,0" style="fill:none;stroke:#000;stroke-linecap:round"/><path id="path4527" d="m -3.5433071e20,3.5433071e20 a 0,0 0 0 0 0,0" style="fill:none;stroke:#000;stroke-linecap:round"/><path id="path4529" d="m -3.5433071e20,3.5433071e20 0,0" style="fill:none;stroke:#000;stroke-linecap:round"/><path id="path4531" d="m -3.5433071e20,3.5433071e20 0,0" style="fill:none;stroke:#000;stroke-linecap:round"/><path id="path4533" d="m -3.5433071e20,3.5433071e20 0,0" style="fill:none;stroke:#000;stroke-linecap:round"/><path id="path4535" d="m -3.5433071e20,3.5433071e20 0,0" style="fill:none;stroke:#000;stroke-linecap:round"/><path id="path4537" d="m -3.5433071e20,3.5433071e20 0,0" style="fill:none;stroke:#000;stroke-linecap:round"/><path id="path4539" d="m -3.5433071e20,3.5433071e20 0,0" style="fill:none;stroke:#000;stroke-linecap:round"/><path id="path4541" d="m -3.5433071e20,3.5433071e20 0,0" style="fill:none;stroke:#000;stroke-linecap:round"/><text id="text4543" style="font-size:0;line-height:125%;fill:#000;font-family:Arial" x="-354330690000000000000" y="354330690000000000000"><tspan id="tspan4545" x="-354330690000000000000" y="354330690000000000000">Light IntensityINTENSITY</tspan></text><text id="text4547" style="font-size:0;line-height:125%;fill:#000;font-family:Arial" x="-354330690000000000000" y="354330690000000000000"><tspan id="tspan4549" x="-354330690000000000000" y="354330690000000000000">*not used*BEAMD</tspan></text><text id="text4551" style="font-size:0;line-height:125%;fill:#000;font-family:Arial" x="-354330690000000000000" y="354330690000000000000"><tspan id="tspan4553" x="-354330690000000000000" y="354330690000000000000">*not used*CONED</tspan></text><text id="text4555" style="font-size:0;line-height:125%;fill:#000;font-family:Arial" x="-354330690000000000000" y="354330690000000000000"><tspan id="tspan4557" x="-354330690000000000000" y="354330690000000000000">Depth Map SizeCONEA</tspan></text><text id="text4559" style="font-size:0;line-height:125%;fill:#000;font-family:Arial" x="-354330690000000000000" y="354330690000000000000"><tspan id="tspan4561" x="-354330690000000000000" y="354330690000000000000">Light Color (RGB)COLOR</tspan></text><text id="text4563" style="font-size:0;line-height:125%;fill:#000;font-family:Arial" x="-354330690000000000000" y="354330690000000000000"><tspan id="tspan4565" x="-354330690000000000000" y="354330690000000000000">Look-at ZLAZ</tspan></text><text id="text4567" style="font-size:0;line-height:125%;fill:#000;font-family:Arial" x="-354330690000000000000" y="354330690000000000000"><tspan id="tspan4569" x="-354330690000000000000" y="354330690000000000000">Look-at YLAY</tspan></text><text id="text4571" style="font-size:0;line-height:125%;fill:#000;font-family:Arial" x="-354330690000000000000" y="354330690000000000000"><tspan id="tspan4573" x="-354330690000000000000" y="354330690000000000000">Look-at XLAX</tspan></text><text id="text4575" style="font-size:0;line-height:125%;fill:#000;font-family:Arial" x="-354330690000000000000" y="354330690000000000000"><tspan id="tspan4577" x="-354330690000000000000" y="354330690000000000000">GNAME</tspan></text><path id="path4579" d="m -3.5433071e20,3.5433071e20 0,0" style="fill:none;stroke:#000;stroke-linecap:round"/><path id="path4581" d="m -3.5433071e20,3.5433071e20 0,0" style="fill:none;stroke:#000;stroke-linecap:round"/></symbol><symbol id="direct"><text id="text4456" style="font-size:.69999999px;line-height:125%;fill:red;font-family:Arial" x="-354330690000000000000" y="354330690000000000000"><tspan id="tspan4458" x="-354330690000000000000" y="354330690000000000000">Light NameSNAME</tspan></text><path id="path4460" d="m -3.5433071e20,3.5433071e20 a 0,0 0 0 0 0,0" style="fill:none;stroke:#000;stroke-linecap:round"/><path id="path4462" d="m -3.5433071e20,3.5433071e20 a 0,0 0 0 0 0,0" style="fill:none;stroke:#000;stroke-linecap:round"/><path id="path4464" d="m -3.5433071e20,3.5433071e20 0,0" style="fill:none;stroke:#000;stroke-linecap:round"/><path id="path4466" d="m -3.5433071e20,3.5433071e20 0,0" style="fill:none;stroke:#000;stroke-linecap:round"/><path id="path4468" d="m -3.5433071e20,3.5433071e20 0,0" style="fill:none;stroke:#000;stroke-linecap:round"/><text id="text4470" style="font-size:0;line-height:125%;fill:#000;font-family:Arial" x="-354330690000000000000" y="354330690000000000000"><tspan id="tspan4472" x="-354330690000000000000" y="354330690000000000000">Look-at YLAY</tspan></text><text id="text4474" style="font-size:0;line-height:125%;fill:#000;font-family:Arial" x="-354330690000000000000" y="354330690000000000000"><tspan id="tspan4476" x="-354330690000000000000" y="354330690000000000000">Light IntensityINTENSITY</tspan></text><text id="text4478" style="font-size:0;line-height:125%;fill:#000;font-family:Arial" x="-354330690000000000000" y="354330690000000000000"><tspan id="tspan4480" x="-354330690000000000000" y="354330690000000000000">*not used*BEAMD</tspan></text><text id="text4482" style="font-size:0;line-height:125%;fill:#000;font-family:Arial" x="-354330690000000000000" y="354330690000000000000"><tspan id="tspan4484" x="-354330690000000000000" y="354330690000000000000">*not used*CONED</tspan></text><text id="text4486" style="font-size:0;line-height:125%;fill:#000;font-family:Arial" x="-354330690000000000000" y="354330690000000000000"><tspan id="tspan4488" x="-354330690000000000000" y="354330690000000000000">Depth Map SizeCONEA</tspan></text><text id="text4490" style="font-size:0;line-height:125%;fill:#000;font-family:Arial" x="-354330690000000000000" y="354330690000000000000"><tspan id="tspan4492" x="-354330690000000000000" y="354330690000000000000">Light Color (RGB)COLOR</tspan></text><text id="text4494" style="font-size:0;line-height:125%;fill:#000;font-family:Arial" x="-354330690000000000000" y="354330690000000000000"><tspan id="tspan4496" x="-354330690000000000000" y="354330690000000000000">Look-at ZLAZ</tspan></text><path id="path4498" d="m -3.5433071e20,3.5433071e20 0,0" style="fill:none;stroke:#000;stroke-linecap:round"/><path id="path4500" d="m -3.5433071e20,3.5433071e20 0,0" style="fill:none;stroke:#000;stroke-linecap:round"/><text id="text4502" style="font-size:0;line-height:125%;fill:#000;font-family:Arial" x="-354330690000000000000" y="354330690000000000000"><tspan id="tspan4504" x="-354330690000000000000" y="354330690000000000000">Look-at XLAX</tspan></text><text id="text4506" style="font-size:0;line-height:125%;fill:#000;font-family:Arial" x="-354330690000000000000" y="354330690000000000000"><tspan id="tspan4508" x="-354330690000000000000" y="354330690000000000000">GNAME</tspan></text></symbol><pattern id="Hatch" width="8" height="8" x="0" y="0" patternUnits="userSpaceOnUse"><path id="path4446" stroke="#000" stroke-width=".25" d="M8 4 l-4,4" linecap="square"/><path id="path4448" stroke="#000" stroke-width=".25" d="M6 2 l-4,4" linecap="square"/><path id="path4450" stroke="#000" stroke-width=".25" d="M4 0 l-4,4" linecap="square"/></pattern><marker id="DistanceX" orient="auto" style="overflow:visible" refX="0" refY="0"><path id="path4443" d="M 3,-3 -3,3 M 0,-5 0,5" style="stroke:#000;stroke-width:.5"/></marker></defs><metadata id="metadata7"/><g id="layer1" transform="translate(6.250027,-851.36231)"><g id="g4559-4-5" transform="matrix(0.83524861,0.11481544,-0.09653786,0.99338684,-715.07906,-312.28806)"><g id="g4368" transform="translate(2.119362,3.1250041)"><g id="g4423" transform="matrix(1.1762707,0,0,1.1762707,-184.24762,-190.89707)"><path style="fill:#fff;fill-opacity:1;stroke:#000;stroke-width:2.31784319999999999;stroke-miterlimit:4;stroke-dasharray:none;stroke-linejoin:round" id="path6" d="m 1131.2212,1170.4359 c 26.7873,7.7924 53.5742,15.5857 80.3615,23.3781 -24.8285,-20.678 -49.5786,-41.5618 -74.4556,-62.1116 -2.1464,0.4662 -4.4186,0.1653 -6.43,-0.4368 0.1747,13.0568 0.3497,26.1136 0.5241,39.1703 z"/><path style="fill:#000;fill-opacity:1;stroke:#fff;stroke-width:2.31784318000000011;stroke-miterlimit:4;stroke-dasharray:none;stroke-linejoin:round" id="path8" d="m 1084.9137,1087.9728 c -12.5116,-10.4547 -25.0235,-20.9091 -37.5352,-31.3637 12.6345,19.616 25.2686,39.2322 37.9033,58.8481 -0.1228,-9.1615 -0.2447,-18.3229 -0.3681,-27.4844 z"/><path style="fill:#fff;fill-opacity:1;stroke:#000;stroke-width:2.31784319999999999;stroke-miterlimit:4;stroke-dasharray:none;stroke-linejoin:round" id="path10" d="m 1085.4636,1129.0416 c -9.1817,-14.2553 -18.3635,-28.5105 -27.545,-42.7658 0.331,32.9717 1.1032,65.9408 1.1589,98.9142 -0.5662,7.6251 -12.7365,12.1847 -19.4967,7.3166 -7.6708,-4.3172 -4.925,-15.6348 4.2507,-17.7164 2.4177,-1.3085 6.6279,0.2281 7.9712,-0.3978 -0.1142,-8.5348 -0.2286,-17.0695 -0.3429,-25.6043 -9.0408,-0.6622 -18.1321,1.8625 -26.0443,5.69 -7.6502,4.3095 -13.9371,10.3454 -17.4552,17.484 -4.0576,8.3529 -4.4918,17.9041 -0.7933,26.1598 3.3351,7.4048 9.875,13.5491 18.001,17.4904 20.3718,-8.4523 40.7431,-16.9055 61.115,-25.3577 -0.2732,-20.4044 -0.5459,-40.8087 -0.8194,-61.213 z"/><path style="fill:#fff;fill-opacity:1;stroke:#000;stroke-width:2.31784319999999999;stroke-miterlimit:4;stroke-dasharray:none;stroke-linejoin:round" id="path12" d="m 1086.3582,1195.8655 c -26.6944,11.0761 -53.3887,22.1522 -80.0831,33.2283 26.8011,-3.0973 53.6023,-6.1943 80.4034,-9.2917 -0.1068,-7.9788 -0.2137,-15.9577 -0.3203,-23.9366 z"/><path style="fill:#000;fill-opacity:1;stroke:#fff;stroke-width:2.31784318000000011;stroke-miterlimit:4;stroke-dasharray:none;stroke-linejoin:round" id="path14" d="m 1131.8124,1214.5862 c 30.6392,-3.5406 61.2783,-7.0812 91.9175,-10.6222 -30.8066,-8.9619 -61.6131,-17.9241 -92.4196,-26.8861 0.1674,12.5027 0.3345,25.0055 0.5021,37.5083 z"/><path style="fill:#fff;fill-opacity:1;stroke:#000;stroke-width:2.31784319999999999;stroke-miterlimit:4;stroke-dasharray:none;stroke-linejoin:round" id="path16" d="m 1144.4649,1128.086 c 7.1602,5.9828 14.3203,11.9656 21.4806,17.9484 10.576,-9.3206 15.0209,-23.1809 10.5122,-35.1026 -2.4846,-7.3798 -8.0682,-13.9336 -15.5865,-18.2467 -6.2943,-3.7572 -14.101,-5.9572 -21.9789,-6.1254 -15.5573,0.3038 -31.1177,1.2884 -46.6764,1.8917 0.5819,43.5029 1.165,87.0058 1.7467,130.5088 10.1885,-1.1769 20.3768,-2.3548 30.5652,-3.532 -0.4603,-34.4065 -0.9209,-68.813 -1.3815,-103.2195 7.2711,0.1291 16.5134,-2.5452 21.6595,2.945 3.6957,3.5246 3.5194,9.2601 -0.3409,12.9323 z"/><g id="g4842" transform="matrix(1.0044163,-0.11609023,0.09760971,0.8445223,987.14404,1063.571)" style="stroke-linejoin:round"><g id="g4690" style="stroke-linejoin:round"><use id="use4692" width="1" height="1" x="0" y="-1052.362" xlink:href="#AVE_RENDER" style="stroke-linejoin:round"/><use id="use4694" width="1" height="1" x="0" y="-1052.362" xlink:href="#AVE_RENDER" style="stroke-linejoin:round"/><use id="use4696" width="1" height="1" x="0" y="-1052.362" xlink:href="#AVE_RENDER" style="stroke-linejoin:round"/><use id="use4698" width="1" height="1" x="0" y="-1052.362" xlink:href="#AVE_RENDER" style="stroke-linejoin:round"/><use id="use4700" width="1" height="1" x="0" y="-1052.362" xlink:href="#AVE_RENDER" style="stroke-linejoin:round"/><use id="use4702" width="1" height="1" x="0" y="-1052.362" xlink:href="#AVE_RENDER" style="stroke-linejoin:round"/><use id="use4704" width="1" height="1" x="0" y="-1052.362" xlink:href="#AVE_RENDER" style="stroke-linejoin:round"/><use id="use4706" width="1" height="1" x="0" y="-1052.362" xlink:href="#AVE_RENDER" style="stroke-linejoin:round"/><use id="use4708" width="1" height="1" x="0" y="-1052.362" xlink:href="#AVE_GLOBAL" style="stroke-linejoin:round"/></g></g></g></g></g></g></svg>