<svg xmlns="http://www.w3.org/2000/svg" xmlns:svg="http://www.w3.org/2000/svg" xmlns:xlink="http://www.w3.org/1999/xlink" id="svg2" width="220" height="196" version="1.1"><defs id="defs4"><filter id="filter3000" color-interpolation-filters="sRGB"><feGaussianBlur id="feGaussianBlur3002" stdDeviation="1"/><feColorMatrix id="feColorMatrix3004" result="fbSourceGraphic" values="1 0 0 0 0 0 1 0 0 0 0 0 1 0 0 0 0 0 6 -2.5"/></filter><filter id="filter3006" color-interpolation-filters="sRGB"><feColorMatrix id="feColorMatrix3008" result="result7" values="1 0 0 0 0 0 1 0 0 0 0 0 1 0 0 0 0 0 1 0"/><feGaussianBlur id="feGaussianBlur3010" result="result6" stdDeviation="1.764"/><feComposite id="feComposite3012" in="result6" in2="result7" operator="atop" result="result91"/><feComposite id="feComposite3014" in2="result91" operator="in"/></filter><filter id="filter3016" color-interpolation-filters="sRGB"><feGaussianBlur id="feGaussianBlur3018" result="result1" stdDeviation="5"/><feComposite id="feComposite3020" in="result1" in2="result1" k1="0" k2="2" k3="0" k4="0" operator="arithmetic"/></filter><filter id="filter3022" color-interpolation-filters="sRGB"><feGaussianBlur id="feGaussianBlur3024" result="result1" stdDeviation="5"/><feComposite id="feComposite3026" in="result1" in2="result1" k1="0" k2="2" k3="0" k4="0" operator="arithmetic"/></filter><filter id="filter3028" color-interpolation-filters="sRGB"><feGaussianBlur id="feGaussianBlur3030" result="result1" stdDeviation="5"/><feComposite id="feComposite3032" in="result1" in2="result1" k1="0" k2="2" k3="0" k4="0" operator="arithmetic"/><feGaussianBlur id="feGaussianBlur3040" stdDeviation="1"/></filter><filter id="filter3034" color-interpolation-filters="sRGB"><feGaussianBlur id="feGaussianBlur3036" result="result1" stdDeviation="5"/><feComposite id="feComposite3038" in="result1" in2="result1" k1="0" k2="2" k3="0" k4="0" operator="arithmetic"/></filter><filter id="filter3042" color-interpolation-filters="sRGB"><feFlood id="feFlood3044" flood-color="#000" flood-opacity=".377" result="flood"/><feComposite id="feComposite3046" in="flood" in2="SourceGraphic" operator="in" result="composite1"/><feGaussianBlur id="feGaussianBlur3048" result="blur" stdDeviation="3.3"/><feOffset id="feOffset3050" dx="3" dy="3" result="offset"/><feComposite id="feComposite3052" in="SourceGraphic" in2="offset" operator="over" result="composite2"/></filter><filter id="filter3054" color-interpolation-filters="sRGB"><feFlood id="feFlood3056" flood-color="#000" flood-opacity=".377" result="flood"/><feComposite id="feComposite3058" in="flood" in2="SourceGraphic" operator="in" result="composite1"/><feGaussianBlur id="feGaussianBlur3060" result="blur" stdDeviation="3.3"/><feOffset id="feOffset3062" dx="3" dy="3" result="offset"/><feComposite id="feComposite3064" in="SourceGraphic" in2="offset" operator="over" result="composite2"/></filter><filter id="filter3066" color-interpolation-filters="sRGB"><feFlood id="feFlood3068" flood-color="#000" flood-opacity=".377" result="flood"/><feComposite id="feComposite3070" in="flood" in2="SourceGraphic" operator="in" result="composite1"/><feGaussianBlur id="feGaussianBlur3072" result="blur" stdDeviation="3.3"/><feOffset id="feOffset3074" dx="3" dy="3" result="offset"/><feComposite id="feComposite3076" in="SourceGraphic" in2="offset" operator="over" result="composite2"/></filter><filter id="filter3078" color-interpolation-filters="sRGB"><feFlood id="feFlood3080" flood-color="#000" flood-opacity=".377" result="flood"/><feComposite id="feComposite3082" in="flood" in2="SourceGraphic" operator="in" result="composite1"/><feGaussianBlur id="feGaussianBlur3084" result="blur" stdDeviation="3.3"/><feOffset id="feOffset3086" dx="3" dy="3" result="offset"/><feComposite id="feComposite3088" in="SourceGraphic" in2="offset" operator="over" result="composite2"/></filter><filter id="filter3078-9" color-interpolation-filters="sRGB"><feFlood id="feFlood3080-8" flood-color="#000" flood-opacity=".377" result="flood"/><feComposite id="feComposite3082-4" in="flood" in2="SourceGraphic" operator="in" result="composite1"/><feGaussianBlur id="feGaussianBlur3084-1" result="blur" stdDeviation="3.3"/><feOffset id="feOffset3086-4" dx="3" dy="3" result="offset"/><feComposite id="feComposite3088-3" in="SourceGraphic" in2="offset" operator="over" result="composite2"/></filter><filter id="filter3946" color-interpolation-filters="sRGB"/><symbol id="sh_spot"><path id="path4584" d="m -3.5433071e20,3.5433071e20 0,0" style="fill:none;stroke:#000;stroke-linecap:round"/><path id="path4586" d="m -3.5433071e20,3.5433071e20 0,0" style="fill:none;stroke:#000;stroke-linecap:round"/><text id="text4588" style="font-size:.69999999px;line-height:125%;fill:red;font-family:Arial" x="-354330690000000000000" y="354330690000000000000"><tspan id="tspan4590" x="-354330690000000000000" y="354330690000000000000">Light NameSNAME</tspan></text><path id="path4592" d="m -3.5433071e20,3.5433071e20 0,0" style="fill:none;stroke:#000;stroke-linecap:round"/><path id="path4594" d="m -3.5433071e20,3.5433071e20 0,0" style="fill:none;stroke:#000;stroke-linecap:round"/><path id="path4596" d="m -3.5433071e20,3.5433071e20 0,0" style="fill:none;stroke:#000;stroke-linecap:round"/><path id="path4598" d="m -3.5433071e20,3.5433071e20 0,0" style="fill:none;stroke:#000;stroke-linecap:round"/><path id="path4600" d="m -3.5433071e20,3.5433071e20 0,0" style="fill:none;stroke:#000;stroke-linecap:round"/><path id="path4602" d="m -3.5433071e20,3.5433071e20 0,0" style="fill:none;stroke:#000;stroke-linecap:round"/><path id="path4604" d="m -3.5433071e20,3.5433071e20 0,0" style="fill:none;stroke:#000;stroke-linecap:round"/><path id="path4606" d="m -3.5433071e20,3.5433071e20 0,0" style="fill:none;stroke:#000;stroke-linecap:round"/><path id="path4608" d="m -3.5433071e20,3.5433071e20 0,0" style="fill:none;stroke:#000;stroke-linecap:round"/><path id="path4610" d="m -3.5433071e20,3.5433071e20 0,0" style="fill:none;stroke:#000;stroke-linecap:round"/><text id="text4612" style="font-size:0;line-height:125%;fill:#000;font-family:Arial" x="-354330690000000000000" y="354330690000000000000"><tspan id="tspan4614" x="-354330690000000000000" y="354330690000000000000">Depth Map SizeZSIZE</tspan></text><text id="text4616" style="font-size:0;line-height:125%;fill:#000;font-family:Arial" x="-354330690000000000000" y="354330690000000000000"><tspan id="tspan4618" x="-354330690000000000000" y="354330690000000000000">Look-from XYZLFXYZ</tspan></text><text id="text4620" style="font-size:0;line-height:125%;fill:#000;font-family:Arial" x="-354330690000000000000" y="354330690000000000000"><tspan id="tspan4622" x="-354330690000000000000" y="354330690000000000000">Beam DistributionBEAMDI</tspan></text><text id="text4624" style="font-size:0;line-height:125%;fill:#000;font-family:Arial" x="-354330690000000000000" y="354330690000000000000"><tspan id="tspan4626" x="-354330690000000000000" y="354330690000000000000">Cone DeltaCONEDE</tspan></text><text id="text4628" style="font-size:0;line-height:125%;fill:#000;font-family:Arial" x="-354330690000000000000" y="354330690000000000000"><tspan id="tspan4630" x="-354330690000000000000" y="354330690000000000000">Cone AngleCONEAN</tspan></text><text id="text4632" style="font-size:0;line-height:125%;fill:#000;font-family:Arial" x="-354330690000000000000" y="354330690000000000000"><tspan id="tspan4634" x="-354330690000000000000" y="354330690000000000000">*not used*BIASMAX</tspan></text><text id="text4636" style="font-size:0;line-height:125%;fill:#000;font-family:Arial" x="-354330690000000000000" y="354330690000000000000"><tspan id="tspan4638" x="-354330690000000000000" y="354330690000000000000">*not used*BIASMIN</tspan></text><text id="text4640" style="font-size:0;line-height:125%;fill:#000;font-family:Arial" x="-354330690000000000000" y="354330690000000000000"><tspan id="tspan4642" x="-354330690000000000000" y="354330690000000000000">Light Color (RGB)COLOR</tspan></text><text id="text4644" style="font-size:0;line-height:125%;fill:#000;font-family:Arial" x="-354330690000000000000" y="354330690000000000000"><tspan id="tspan4646" x="-354330690000000000000" y="354330690000000000000">Light IntensityINTENSITY</tspan></text><text id="text4648" style="font-size:0;line-height:125%;fill:#000;font-family:Arial" x="-354330690000000000000" y="354330690000000000000"><tspan id="tspan4650" x="-354330690000000000000" y="354330690000000000000">GNAME</tspan></text><text id="text4652" style="font-size:0;line-height:125%;fill:#000;font-family:Arial" x="-354330690000000000000" y="354330690000000000000"><tspan id="tspan4654" x="-354330690000000000000" y="354330690000000000000">Look-at ZLAZ</tspan></text><text id="text4656" style="font-size:0;line-height:125%;fill:#000;font-family:Arial" x="-354330690000000000000" y="354330690000000000000"><tspan id="tspan4658" x="-354330690000000000000" y="354330690000000000000">Look-at YLAY</tspan></text><text id="text4660" style="font-size:0;line-height:125%;fill:#000;font-family:Arial" x="-354330690000000000000" y="354330690000000000000"><tspan id="tspan4662" x="-354330690000000000000" y="354330690000000000000">Look-at XLAX</tspan></text><path id="path4664" d="m -3.5433071e20,3.5433071e20 0,0" style="fill:none;stroke:#000;stroke-linecap:round"/><path id="path4666" d="m -3.5433071e20,3.5433071e20 0,0" style="fill:none;stroke:#000;stroke-linecap:round"/><path id="path4668" d="m -3.5433071e20,3.5433071e20 0,0" style="fill:none;stroke:#000;stroke-linecap:round"/><path id="path4670" d="m -3.5433071e20,3.5433071e20 0,0" style="fill:none;stroke:#000;stroke-linecap:round"/><path id="path4672" d="m -3.5433071e20,3.5433071e20 0,0" style="fill:none;stroke:#000;stroke-linecap:round"/><path id="path4674" d="m -3.5433071e20,3.5433071e20 0,0" style="fill:none;stroke:#000;stroke-linecap:round"/><path id="path4676" d="m -3.5433071e20,3.5433071e20 0,0" style="fill:none;stroke:#000;stroke-linecap:round"/><path id="path4678" d="m -3.5433071e20,3.5433071e20 0,0" style="fill:none;stroke:#000;stroke-linecap:round"/><path id="path4680" d="m -3.5433071e20,3.5433071e20 0,0" style="fill:none;stroke:#000;stroke-linecap:round"/><path id="path4682" d="m -3.5433071e20,3.5433071e20 0,0" style="fill:none;stroke:#000;stroke-linecap:round"/><path id="path4684" d="m -3.5433071e20,3.5433071e20 0,0" style="fill:none;stroke:#000;stroke-linecap:round"/></symbol><symbol id="overhead"><text id="text4511" style="font-size:.69999999px;line-height:125%;fill:red;font-family:Arial" x="-354330690000000000000" y="354330690000000000000"><tspan id="tspan4513" x="-354330690000000000000" y="354330690000000000000">Light NameSNAME</tspan></text><path id="path4515" d="m -3.5433071e20,3.5433071e20 a 0,0 0 0 0 0,0" style="fill:none;stroke:#000;stroke-linecap:round"/><path id="path4517" d="m -3.5433071e20,3.5433071e20 0,0" style="fill:none;stroke:#000;stroke-linecap:round"/><path id="path4519" d="m -3.5433071e20,3.5433071e20 0,0" style="fill:none;stroke:#000;stroke-linecap:round"/><path id="path4521" d="m -3.5433071e20,3.5433071e20 0,0" style="fill:none;stroke:#000;stroke-linecap:round"/><path id="path4523" d="m -3.5433071e20,3.5433071e20 0,0" style="fill:none;stroke:#000;stroke-linecap:round"/><path id="path4525" d="m -3.5433071e20,3.5433071e20 0,0" style="fill:none;stroke:#000;stroke-linecap:round"/><path id="path4527" d="m -3.5433071e20,3.5433071e20 a 0,0 0 0 0 0,0" style="fill:none;stroke:#000;stroke-linecap:round"/><path id="path4529" d="m -3.5433071e20,3.5433071e20 0,0" style="fill:none;stroke:#000;stroke-linecap:round"/><path id="path4531" d="m -3.5433071e20,3.5433071e20 0,0" style="fill:none;stroke:#000;stroke-linecap:round"/><path id="path4533" d="m -3.5433071e20,3.5433071e20 0,0" style="fill:none;stroke:#000;stroke-linecap:round"/><path id="path4535" d="m -3.5433071e20,3.5433071e20 0,0" style="fill:none;stroke:#000;stroke-linecap:round"/><path id="path4537" d="m -3.5433071e20,3.5433071e20 0,0" style="fill:none;stroke:#000;stroke-linecap:round"/><path id="path4539" d="m -3.5433071e20,3.5433071e20 0,0" style="fill:none;stroke:#000;stroke-linecap:round"/><path id="path4541" d="m -3.5433071e20,3.5433071e20 0,0" style="fill:none;stroke:#000;stroke-linecap:round"/><text id="text4543" style="font-size:0;line-height:125%;fill:#000;font-family:Arial" x="-354330690000000000000" y="354330690000000000000"><tspan id="tspan4545" x="-354330690000000000000" y="354330690000000000000">Light IntensityINTENSITY</tspan></text><text id="text4547" style="font-size:0;line-height:125%;fill:#000;font-family:Arial" x="-354330690000000000000" y="354330690000000000000"><tspan id="tspan4549" x="-354330690000000000000" y="354330690000000000000">*not used*BEAMD</tspan></text><text id="text4551" style="font-size:0;line-height:125%;fill:#000;font-family:Arial" x="-354330690000000000000" y="354330690000000000000"><tspan id="tspan4553" x="-354330690000000000000" y="354330690000000000000">*not used*CONED</tspan></text><text id="text4555" style="font-size:0;line-height:125%;fill:#000;font-family:Arial" x="-354330690000000000000" y="354330690000000000000"><tspan id="tspan4557" x="-354330690000000000000" y="354330690000000000000">Depth Map SizeCONEA</tspan></text><text id="text4559" style="font-size:0;line-height:125%;fill:#000;font-family:Arial" x="-354330690000000000000" y="354330690000000000000"><tspan id="tspan4561" x="-354330690000000000000" y="354330690000000000000">Light Color (RGB)COLOR</tspan></text><text id="text4563" style="font-size:0;line-height:125%;fill:#000;font-family:Arial" x="-354330690000000000000" y="354330690000000000000"><tspan id="tspan4565" x="-354330690000000000000" y="354330690000000000000">Look-at ZLAZ</tspan></text><text id="text4567" style="font-size:0;line-height:125%;fill:#000;font-family:Arial" x="-354330690000000000000" y="354330690000000000000"><tspan id="tspan4569" x="-354330690000000000000" y="354330690000000000000">Look-at YLAY</tspan></text><text id="text4571" style="font-size:0;line-height:125%;fill:#000;font-family:Arial" x="-354330690000000000000" y="354330690000000000000"><tspan id="tspan4573" x="-354330690000000000000" y="354330690000000000000">Look-at XLAX</tspan></text><text id="text4575" style="font-size:0;line-height:125%;fill:#000;font-family:Arial" x="-354330690000000000000" y="354330690000000000000"><tspan id="tspan4577" x="-354330690000000000000" y="354330690000000000000">GNAME</tspan></text><path id="path4579" d="m -3.5433071e20,3.5433071e20 0,0" style="fill:none;stroke:#000;stroke-linecap:round"/><path id="path4581" d="m -3.5433071e20,3.5433071e20 0,0" style="fill:none;stroke:#000;stroke-linecap:round"/></symbol><symbol id="direct"><text id="text4456" style="font-size:.69999999px;line-height:125%;fill:red;font-family:Arial" x="-354330690000000000000" y="354330690000000000000"><tspan id="tspan4458" x="-354330690000000000000" y="354330690000000000000">Light NameSNAME</tspan></text><path id="path4460" d="m -3.5433071e20,3.5433071e20 a 0,0 0 0 0 0,0" style="fill:none;stroke:#000;stroke-linecap:round"/><path id="path4462" d="m -3.5433071e20,3.5433071e20 a 0,0 0 0 0 0,0" style="fill:none;stroke:#000;stroke-linecap:round"/><path id="path4464" d="m -3.5433071e20,3.5433071e20 0,0" style="fill:none;stroke:#000;stroke-linecap:round"/><path id="path4466" d="m -3.5433071e20,3.5433071e20 0,0" style="fill:none;stroke:#000;stroke-linecap:round"/><path id="path4468" d="m -3.5433071e20,3.5433071e20 0,0" style="fill:none;stroke:#000;stroke-linecap:round"/><text id="text4470" style="font-size:0;line-height:125%;fill:#000;font-family:Arial" x="-354330690000000000000" y="354330690000000000000"><tspan id="tspan4472" x="-354330690000000000000" y="354330690000000000000">Look-at YLAY</tspan></text><text id="text4474" style="font-size:0;line-height:125%;fill:#000;font-family:Arial" x="-354330690000000000000" y="354330690000000000000"><tspan id="tspan4476" x="-354330690000000000000" y="354330690000000000000">Light IntensityINTENSITY</tspan></text><text id="text4478" style="font-size:0;line-height:125%;fill:#000;font-family:Arial" x="-354330690000000000000" y="354330690000000000000"><tspan id="tspan4480" x="-354330690000000000000" y="354330690000000000000">*not used*BEAMD</tspan></text><text id="text4482" style="font-size:0;line-height:125%;fill:#000;font-family:Arial" x="-354330690000000000000" y="354330690000000000000"><tspan id="tspan4484" x="-354330690000000000000" y="354330690000000000000">*not used*CONED</tspan></text><text id="text4486" style="font-size:0;line-height:125%;fill:#000;font-family:Arial" x="-354330690000000000000" y="354330690000000000000"><tspan id="tspan4488" x="-354330690000000000000" y="354330690000000000000">Depth Map SizeCONEA</tspan></text><text id="text4490" style="font-size:0;line-height:125%;fill:#000;font-family:Arial" x="-354330690000000000000" y="354330690000000000000"><tspan id="tspan4492" x="-354330690000000000000" y="354330690000000000000">Light Color (RGB)COLOR</tspan></text><text id="text4494" style="font-size:0;line-height:125%;fill:#000;font-family:Arial" x="-354330690000000000000" y="354330690000000000000"><tspan id="tspan4496" x="-354330690000000000000" y="354330690000000000000">Look-at ZLAZ</tspan></text><path id="path4498" d="m -3.5433071e20,3.5433071e20 0,0" style="fill:none;stroke:#000;stroke-linecap:round"/><path id="path4500" d="m -3.5433071e20,3.5433071e20 0,0" style="fill:none;stroke:#000;stroke-linecap:round"/><text id="text4502" style="font-size:0;line-height:125%;fill:#000;font-family:Arial" x="-354330690000000000000" y="354330690000000000000"><tspan id="tspan4504" x="-354330690000000000000" y="354330690000000000000">Look-at XLAX</tspan></text><text id="text4506" style="font-size:0;line-height:125%;fill:#000;font-family:Arial" x="-354330690000000000000" y="354330690000000000000"><tspan id="tspan4508" x="-354330690000000000000" y="354330690000000000000">GNAME</tspan></text></symbol><pattern id="Hatch" width="8" height="8" x="0" y="0" patternUnits="userSpaceOnUse"><path id="path4446" stroke="#000" stroke-width=".25" d="M8 4 l-4,4" linecap="square"/><path id="path4448" stroke="#000" stroke-width=".25" d="M6 2 l-4,4" linecap="square"/><path id="path4450" stroke="#000" stroke-width=".25" d="M4 0 l-4,4" linecap="square"/></pattern><marker id="DistanceX" orient="auto" style="overflow:visible" refX="0" refY="0"><path id="path4443" d="M 3,-3 -3,3 M 0,-5 0,5" style="stroke:#000;stroke-width:.5"/></marker></defs><metadata id="metadata7"/><g id="layer1" transform="translate(0,-856.36233)"><g id="g4559-4-5" transform="matrix(0.83524861,0.11481544,-0.09653786,0.99338684,-715.07906,-312.28806)"><g id="g4368" transform="translate(2.119362,3.1250041)"><g id="g4423" transform="matrix(1.1762707,0,0,1.1762707,-184.24762,-190.89707)"><g id="g4978" transform="matrix(1.0125196,-0.00119978,-0.00119978,1.0022777,-11.123555,-1.5922275)"><g id="g3773" transform="matrix(0.38111319,-0.04404898,0.03703682,0.32044377,716.90369,1046.2336)"><path style="fill:#000;fill-opacity:1;stroke:none" id="path6" d="m 1035.914,530.245 c 66.1905,33.45971 132.3796,66.92212 198.57,100.382 -57.3738,-72.36105 -114.4862,-145.32681 -172.022,-217.311 -5.6261,0.67019 -11.3469,-1.06152 -16.312,-3.626 -3.4121,40.18499 -6.8233,80.37006 -10.236,120.555 z"/><path style="fill:#d97600;fill-opacity:1;stroke:none" id="path8" d="m 941.879,260.392 c -28.9015,-36.57073 -57.80399,-73.14067 -86.706,-109.711 26.5086,64.76656 53.01588,129.53365 79.525,194.3 2.39335,-28.19636 4.78922,-56.39251 7.181,-84.589 z"/><path style="fill:#000;fill-opacity:1;stroke:none" id="path10" d="m 931.148,386.79 c -19.26395,-47.06702 -38.52851,-94.13379 -57.792,-141.201 -8.8979,101.43849 -16.66682,203.02542 -26.26886,304.37123 -3.70129,23.23045 -36.16737,32.91956 -52.01405,15.55886 -18.33783,-15.99106 -7.9724,-49.79417 16.10456,-52.9321 6.5685,-3.16206 16.8795,3.05494 20.49928,1.60874 2.23034,-26.26755 4.46016,-52.53514 6.69007,-78.80273 -22.92099,-5.24606 -46.9129,-0.71655 -68.27498,8.23483 -20.83467,10.52603 -38.69367,26.84118 -49.79902,47.52817 -12.84358,24.22702 -16.77645,53.42305 -9.75933,80.10626 6.33934,23.9392 21.24561,45.14331 40.85833,60.14074 54.58737,-18.73791 109.17362,-37.4791 163.761,-56.217 5.33154,-62.79868 10.66435,-125.59725 15.995,-188.396 z"/><path style="fill:#000;fill-opacity:1;stroke:none" id="path12" d="m 913.687,592.455 c -71.529,24.55532 -143.05798,49.11073 -214.587,73.666 69.444,10e-4 138.888,0.003 208.332,0.004 2.0851,-24.55666 4.16974,-49.11335 6.255,-73.67 z"/><path style="fill:#d97600;fill-opacity:1;stroke:none" id="path14" d="m 1024.378,666.127 c 79.3887,0.002 158.7773,0.004 238.166,0.005 -76.1219,-38.48128 -152.2434,-76.96327 -228.365,-115.445 -3.2669,38.48001 -6.5347,76.95994 -9.801,115.44 z"/><path style="fill:#000;fill-opacity:1;stroke:none" id="path16" d="m 1082.293,404.809 c 16.5399,20.92811 33.0798,41.85614 49.62,62.784 29.7968,-24.88543 45.2582,-65.899 37.253,-104.135 -4.1719,-23.56045 -16.5121,-45.68322 -34.4612,-61.6074 -14.9839,-13.78119 -34.2949,-23.31472 -54.3884,-26.62954 -39.8687,-4.59198 -79.9467,-7.09278 -119.9074,-10.76506 -11.36868,133.88958 -22.73416,267.77943 -34.103,401.669 26.399,0.002 52.798,10e-4 79.197,0.002 8.9911,-105.8933 17.9814,-211.78666 26.972,-317.68 18.5535,2.97932 42.9757,-1.95621 54.5114,16.74277 8.408,12.14337 6.2622,29.70579 -4.6934,39.61923 z"/></g></g><g id="g4842" transform="matrix(1.0044163,-0.11609023,0.09760971,0.8445223,987.14404,1063.571)"><g id="g4690"><use id="use4692" width="1" height="1" x="0" y="-1052.362" xlink:href="#AVE_RENDER"/><use id="use4694" width="1" height="1" x="0" y="-1052.362" xlink:href="#AVE_RENDER"/><use id="use4696" width="1" height="1" x="0" y="-1052.362" xlink:href="#AVE_RENDER"/><use id="use4698" width="1" height="1" x="0" y="-1052.362" xlink:href="#AVE_RENDER"/><use id="use4700" width="1" height="1" x="0" y="-1052.362" xlink:href="#AVE_RENDER"/><use id="use4702" width="1" height="1" x="0" y="-1052.362" xlink:href="#AVE_RENDER"/><use id="use4704" width="1" height="1" x="0" y="-1052.362" xlink:href="#AVE_RENDER"/><use id="use4706" width="1" height="1" x="0" y="-1052.362" xlink:href="#AVE_RENDER"/><use id="use4708" width="1" height="1" x="0" y="-1052.362" xlink:href="#AVE_GLOBAL"/></g></g></g></g></g></g></svg>