<svg xmlns="http://www.w3.org/2000/svg" xmlns:svg="http://www.w3.org/2000/svg" xmlns:xlink="http://www.w3.org/1999/xlink" id="svg2" width="340" height="340" version="1.0"><defs id="defs4"><linearGradient id="linearGradient4148"><stop style="stop-color:#2a4fd4;stop-opacity:1" id="stop4150" offset="0"/><stop style="stop-color:#8296e0;stop-opacity:1" id="stop4152" offset="1"/></linearGradient><linearGradient id="linearGradient4130"><stop style="stop-color:#405c9c;stop-opacity:1" id="stop4132" offset="0"/><stop style="stop-color:#4c7ff4;stop-opacity:1" id="stop4134" offset="1"/></linearGradient><linearGradient id="linearGradient4122"><stop style="stop-color:#4c7ff4;stop-opacity:1" id="stop4124" offset="0"/><stop style="stop-color:#4c7ff4;stop-opacity:0" id="stop4126" offset="1"/></linearGradient><linearGradient id="linearGradient4166" x1="-820.563" x2="-441.438" y1="99.781" y2="456.359" gradientTransform="translate(-302.00003,-83.997175)" gradientUnits="userSpaceOnUse" xlink:href="#linearGradient4130"/><linearGradient id="linearGradient4168" x1="-810.482" x2="-408.283" y1="326.583" y2="-52.911" gradientUnits="userSpaceOnUse" xlink:href="#linearGradient4122"/><radialGradient id="radialGradient5169" cx="194.286" cy="355.219" r="302.435" fx="194.286" fy="355.219" gradientUnits="userSpaceOnUse" xlink:href="#linearGradient4148"/></defs><metadata id="metadata7"/><g id="layer1" transform="translate(-63.022938,-329.65394)" style="display:inline"><g id="g3488"><g id="g4160" transform="translate(33.28571,149.85717)"><path style="fill:none;stroke:#121217;stroke-width:5.86233473;stroke-miterlimit:4;stroke-opacity:1;stroke-dasharray:none" id="path2167" d="m 260,339.36218 c 0,104.38182 -84.61818,189 -189,189 -104.381818,0 -189,-84.61818 -189,-189 0,-104.38182 84.618182,-189 189,-189 104.38182,0 189,84.61818 189,189 z" transform="matrix(0.8633229,0,0,0.8633229,137.70407,56.383021)"/></g><path style="fill:#f9f9f9;opacity:.50862069" id="path3134" d="m 155.70224,328.71824 c -12.40699,-0.98905 -29.0284,-4.65429 -41.48772,-9.14861 C 63.533755,301.28806 24.186033,255.65091 12.530038,201.63166 9.4217475,187.2264 9.4452263,152.45869 12.57311,137.85006 22.016315,93.746044 49.129538,55.415808 86.958353,32.690893 166.15051,-14.882234 269.27624,14.569008 311.20692,96.733091 c 11.73276,22.990589 16.24846,40.580129 17.21986,67.074769 1.18986,32.45288 -5.75418,60.55573 -21.38254,86.536 -32.19873,53.52659 -89.67303,83.29037 -151.342,78.37438 l 0,0 z" transform="translate(63.022938,329.65394)"/></g></g><g id="layer6" style="display:inline" transform="translate(0,-264.86925)"><rect style="fill:#00f;fill-rule:evenodd;stroke:#000;stroke-width:.85537124px;stroke-linecap:butt;stroke-linejoin:miter;stroke-opacity:1;display:inline" id="rect3077" width="9.145" height="307.225" x="161.428" y="274.007"/><rect style="fill:#00f" id="rect3910" width="14.617" height="37.721" x="522.704" y="285.893" ry="0" transform="matrix(0.73167111,0.68165783,-0.69735008,0.71673068,0,0)"/><rect style="fill:#f0f" id="rect3934" width="14.827" height="37.533" x="-318.023" y="485.319" transform="matrix(0.66520085,-0.74666447,0.72301471,0.69083263,0,0)"/><path style="fill:#f0f" id="path3947" d="m 169.78312,315.53816 -7.05871,-7.13313 0,-149.33939 0,-149.33938 3.69588,0 3.69588,0 0,150.56498 0,150.56499 6.78662,-6.70232 6.78662,-6.70232 4.59303,4.59303 4.59304,4.59304 -8.01682,8.01682 -8.01683,8.01683 -7.05871,-7.13315 0,0 z" transform="translate(0,264.86925)"/></g></svg>