<svg xmlns="http://www.w3.org/2000/svg" xmlns:svg="http://www.w3.org/2000/svg" xmlns:xlink="http://www.w3.org/1999/xlink" id="svg2" width="64" height="64" version="1.0" style="display:inline"><defs id="defs4"><linearGradient id="linearGradient3213"><stop style="stop-color:#fff;stop-opacity:.21969697" id="stop3215" offset="0"/><stop style="stop-color:#fff;stop-opacity:.0530303" id="stop3217" offset="1"/></linearGradient><linearGradient id="linearGradient3227"><stop style="stop-color:#fff;stop-opacity:.13559322" id="stop3229" offset="0"/><stop style="stop-color:#3a3a3a;stop-opacity:.11016949" id="stop3231" offset="1"/></linearGradient><linearGradient id="linearGradient3284"><stop style="stop-color:#fff;stop-opacity:.62931037" id="stop3286" offset="0"/><stop style="stop-color:#a3a3a3;stop-opacity:0" id="stop3288" offset="1"/></linearGradient><linearGradient id="linearGradient3299"><stop id="stop3301" offset="0" style="stop-color:#fff;stop-opacity:.31384614"/><stop id="stop3303" offset="1" style="stop-color:#fff;stop-opacity:.15686275"/></linearGradient><linearGradient id="linearGradient3293"><stop id="stop3295" offset="0" style="stop-color:#fff;stop-opacity:1"/><stop id="stop3297" offset="1" style="stop-color:#000;stop-opacity:.02157165"/></linearGradient><linearGradient id="linearGradient3218"><stop style="stop-color:#fff;stop-opacity:.78431374" id="stop3220" offset="0"/><stop style="stop-color:#fff;stop-opacity:0" id="stop3222" offset="1"/></linearGradient><linearGradient id="linearGradient3204"><stop style="stop-color:#fff;stop-opacity:0" id="stop3206" offset="0"/><stop style="stop-color:#fff;stop-opacity:.25098041" id="stop3208" offset="1"/></linearGradient><linearGradient id="linearGradient3162"><stop style="stop-color:#424242;stop-opacity:.13793103" id="stop3164" offset="0"/><stop style="stop-color:#f0f0f0;stop-opacity:0" id="stop3166" offset="1"/></linearGradient><linearGradient id="linearGradient3210" x1="32" x2="32" y1="32" y2="61" gradientUnits="userSpaceOnUse" xlink:href="#linearGradient3204"/><linearGradient id="linearGradient3224" x1="24" x2="24" y1="2" y2="31.571" gradientUnits="userSpaceOnUse" xlink:href="#linearGradient3218"/><linearGradient id="linearGradient3267" x1="32" x2="32" y1="64" y2="0" gradientUnits="userSpaceOnUse" xlink:href="#linearGradient3162"/><linearGradient id="linearGradient3271" x1="24" x2="24" y1="2" y2="31.571" gradientUnits="userSpaceOnUse" xlink:href="#linearGradient3218"/><radialGradient id="radialGradient3283" cx="32" cy="32" r="29" fx="32" fy="32" gradientUnits="userSpaceOnUse" xlink:href="#linearGradient3299"/><radialGradient id="radialGradient2210" cx="32" cy="32" r="29" fx="32" fy="32" gradientTransform="matrix(0.962963,0,0,0.9444445,1.1851851,1.7777776)" gradientUnits="userSpaceOnUse" xlink:href="#linearGradient3213"/><radialGradient id="radialGradient4673" cx="24" cy="-2.052" r="18" fx="24" fy="-2.052" gradientTransform="matrix(1.8095239,-6.9383612e-8,5.1646454e-8,1.8333332,-19.428571,1.7619038)" gradientUnits="userSpaceOnUse" xlink:href="#linearGradient3218"/><radialGradient id="radialGradient4675" cx="24" cy="-.727" r="18" fx="24" fy="-.727" gradientTransform="matrix(1.8095238,0,0,1.8333332,-19.42857,-1.6666668)" gradientUnits="userSpaceOnUse" xlink:href="#linearGradient3218"/><radialGradient id="radialGradient3233" cx="48.656" cy="51.519" r="29.444" fx="48.656" fy="51.519" gradientUnits="userSpaceOnUse" xlink:href="#linearGradient3227"/></defs><metadata id="metadata7"/><g id="LayerBase" style="display:none"><g style="fill:none;stroke:url(#radialGradient3233);stroke-width:2.17741656;stroke-miterlimit:4;stroke-dasharray:none;display:inline" id="ButtonBase" transform="matrix(0.6792453,0,0,0.6792453,10.26415,10.26415)"><path id="path3257" d="M 61.444443,32 A 29.444443,29.444443 0 1 1 60.441148,24.379217" style="opacity:1;fill:none;fill-opacity:1;fill-rule:evenodd;stroke:url(#radialGradient3233);stroke-width:2.17741656;stroke-linecap:round;stroke-linejoin:round;stroke-miterlimit:4;stroke-dasharray:none;stroke-opacity:1"/><path id="path3259" d="M 63,32 A 31,31 0 1 1 1,32 A 31,31 0 1 1 63,32 z" transform="matrix(0.9498207,0,0,0.9498207,1.6057361,1.6057361)" style="opacity:1;fill:none;fill-opacity:1;fill-rule:evenodd;stroke:url(#radialGradient3233);stroke-width:2.7574501;stroke-linecap:round;stroke-linejoin:round;stroke-miterlimit:4;stroke-dasharray:none;stroke-opacity:1"/><path id="path3281" d="M 62,32 A 30,30 0 1 1 2,32 A 30,30 0 1 1 62,32 z" transform="matrix(0.9,0,0,0.9,3.1999999,3.1999999)" style="opacity:1;fill:none;fill-opacity:.62672813;fill-rule:evenodd;stroke:#2b2b2b;stroke-width:1.92861104;stroke-linecap:round;stroke-linejoin:round;stroke-miterlimit:4;stroke-dasharray:none;stroke-opacity:.50228307"/></g></g><g id="LayerPressed" style="display:inline"><g id="ButtonPressedBase" transform="matrix(0.6792453,0,0,0.6792453,10.26415,10.26415)"><rect style="opacity:1;fill:none;fill-opacity:1;stroke:none;stroke-width:1;stroke-miterlimit:4;stroke-dasharray:none;stroke-opacity:1" id="rect4724" width="64" height="64" x="0" y="0"/><path id="path3263" d="M 61,32 A 29,29 0 1 1 3,32 A 29,29 0 1 1 61,32 z" transform="matrix(0.9310345,0,0,0.9310345,2.2068967,2.2068968)" style="opacity:1;fill:url(#radialGradient2210);fill-opacity:1;fill-rule:evenodd;stroke:none;stroke-width:.10000000000000001;stroke-linecap:round;stroke-linejoin:round;stroke-miterlimit:4;stroke-dasharray:none;stroke-opacity:1"/><path id="path3209" d="M 42,20 A 18,18 0 1 1 6,20 A 18,18 0 1 1 42,20 z" transform="matrix(1.4166666,0,0,1.4027778,-1.9999995,3.1944446)" style="opacity:1;fill:#fff;fill-opacity:0;fill-rule:evenodd;stroke:none;stroke-width:.1;stroke-linecap:round;stroke-linejoin:round;stroke-miterlimit:4;stroke-dasharray:none;stroke-opacity:1;display:inline"/></g><g id="ButtonPressedOverlay" transform="matrix(0.6792453,0,0,0.6792453,10.26415,12.739024)" style="opacity:.56682028"><rect id="rect3182" width="64" height="64" x="0" y="0" style="opacity:1;fill:none;fill-opacity:1;stroke:none;stroke-width:1;stroke-miterlimit:4;stroke-dasharray:none;stroke-opacity:1"/><path style="opacity:.47465436999999999;fill:url(#radialGradient4675);fill-opacity:1;fill-rule:evenodd;stroke:none;stroke-width:.10000000000000001;stroke-linecap:round;stroke-linejoin:round;stroke-miterlimit:4;stroke-dasharray:none;stroke-opacity:1;display:inline" id="path3226" d="M 42,20 A 18,18 0 1 1 6,20 A 18,18 0 1 1 42,20 z" transform="matrix(1.1666668,0,0,1,3.9999975,4.9999993)"/></g></g><g id="LayerNormal" style="display:none"><g style="display:inline" id="ButtonNormalBase" transform="matrix(0.6792453,0,0,0.7011564,10.26415,10.26415)"><rect style="opacity:1;fill:none;fill-opacity:1;stroke:none;stroke-width:1;stroke-miterlimit:4;stroke-dasharray:none;stroke-opacity:1" id="rect4730" width="64" height="64" x="0" y="0" ry="0"/><path id="path4734" d="M 42,20 A 18,18 0 1 1 6,20 A 18,18 0 1 1 42,20 z" transform="matrix(1.4722222,0,0,1.4444445,-3.3333336,2.1111101)" style="opacity:1;fill:#fff;fill-opacity:.1254902;fill-rule:evenodd;stroke:none;stroke-width:.1;stroke-linecap:round;stroke-linejoin:round;stroke-miterlimit:4;stroke-dasharray:none;stroke-opacity:1;display:inline"/></g><g id="ButtonNormalOverlay" style="display:inline" transform="matrix(0.6792453,0,0,0.6792453,10.528302,9.6981123)"><rect id="rect2202" width="64" height="64" x="0" y="0" ry="0" style="opacity:1;fill:none;fill-opacity:1;stroke:none;stroke-width:1;stroke-miterlimit:4;stroke-dasharray:none;stroke-opacity:1"/><path style="opacity:1;fill:url(#radialGradient4673);fill-opacity:1;fill-rule:evenodd;stroke:none;stroke-width:.1;stroke-linecap:round;stroke-linejoin:round;stroke-miterlimit:4;stroke-dasharray:none;stroke-opacity:1" id="path3188" d="M 42,20 A 18,18 0 1 1 6,20 A 18,18 0 1 1 42,20 z" transform="matrix(1.1666667,0,0,1.0000001,3.9999997,3.9999987)"/></g></g><g id="LayerDisabled" style="display:none"><g id="ButtonDisabledOverlay" transform="matrix(0.6792453,0,0,0.6792453,10.26415,10.26415)"><rect style="opacity:1;fill:none;fill-opacity:1;stroke:none;stroke-width:1;stroke-miterlimit:4;stroke-dasharray:none;stroke-opacity:1" id="rect2247" width="64" height="64" x="0" y="0" ry="0"/><path style="opacity:1;fill:gray;fill-opacity:.17351595;fill-rule:evenodd;stroke:none;stroke-width:.1;stroke-linecap:round;stroke-linejoin:round;stroke-miterlimit:4;stroke-dasharray:none;stroke-opacity:1" id="path2250" d="M 62,32 A 30,30 0 1 1 2,32 A 30,30 0 1 1 62,32 z" transform="matrix(0.9,0,0,0.9,3.2,3.2)"/></g></g><g id="LayerButtonHover" style="display:none"><g id="ButtonHoverOverlay" transform="matrix(0.6792453,0,0,0.6792453,10.26415,10.26415)"><rect id="rect2209" width="64" height="64" x="0" y="0" ry="0" style="opacity:1;fill:none;fill-opacity:1;stroke:none;stroke-width:1;stroke-miterlimit:4;stroke-dasharray:none;stroke-opacity:1"/><path id="path2211" d="M 62,32 A 30,30 0 1 1 2,32 A 30,30 0 1 1 62,32 z" transform="matrix(0.9,0,0,0.9,3.2,3.2)" style="opacity:1;fill:#fff;fill-opacity:.04020099;fill-rule:evenodd;stroke:none;stroke-width:.1;stroke-linecap:round;stroke-linejoin:round;stroke-miterlimit:4;stroke-dasharray:none;stroke-opacity:1"/></g></g></svg>